<svg width="16" height="17" viewBox="0 0 16 17" fill="none" xmlns="http://www.w3.org/2000/svg">
<path d="M13.3133 7.16602H2.64667V12.4993C2.64667 14.4993 3.31333 15.166 5.31333 15.166H10.6467C12.6467 15.166 13.3133 14.4993 13.3133 12.4993V7.16602Z" stroke="#FE3A3B" stroke-width="1.5" stroke-miterlimit="10" stroke-linecap="round" stroke-linejoin="round"/>
<path d="M14.3334 5.16732V5.83398C14.3334 6.56732 13.98 7.16732 13 7.16732H3.00002C1.98002 7.16732 1.66669 6.56732 1.66669 5.83398V5.16732C1.66669 4.43398 1.98002 3.83398 3.00002 3.83398H13C13.98 3.83398 14.3334 4.43398 14.3334 5.16732Z" stroke="#FE3A3B" stroke-width="1.5" stroke-miterlimit="10" stroke-linecap="round" stroke-linejoin="round"/>
<path d="M7.76 3.83427H4.08C3.85333 3.5876 3.86 3.2076 4.1 2.9676L5.04667 2.02094C5.29333 1.77427 5.7 1.77427 5.94667 2.02094L7.76 3.83427Z" stroke="#FE3A3B" stroke-width="1.5" stroke-miterlimit="10" stroke-linecap="round" stroke-linejoin="round"/>
<path d="M11.9133 3.83427H8.23334L10.0467 2.02094C10.2933 1.77427 10.7 1.77427 10.9467 2.02094L11.8933 2.9676C12.1333 3.2076 12.14 3.5876 11.9133 3.83427Z" stroke="#FE3A3B" stroke-width="1.5" stroke-miterlimit="10" stroke-linecap="round" stroke-linejoin="round"/>
<path d="M5.96002 7.16602V10.5927C5.96002 11.126 6.54669 11.4393 6.99336 11.1527L7.62002 10.7393C7.84669 10.5927 8.13336 10.5927 8.35336 10.7393L8.94669 11.1393C9.38669 11.4327 9.98002 11.1193 9.98002 10.586V7.16602H5.96002Z" stroke="#FE3A3B" stroke-width="1.5" stroke-miterlimit="10" stroke-linecap="round" stroke-linejoin="round"/>
</svg>
