<svg width="85" height="48" viewBox="0 0 85 48" fill="none" xmlns="http://www.w3.org/2000/svg">
<g clip-path="url(#clip0_405_26497)">
<path d="M34.3662 22.9298C34.488 23.1205 34.619 23.3044 34.7684 23.4757C35.3396 23.8917 36.0971 23.94 36.7694 23.7975C37.0211 23.7297 37.2648 23.6331 37.4912 23.5044C37.7268 23.3332 37.9291 23.1205 38.1003 22.8861C38.221 23.2711 37.8624 23.5676 37.6027 23.7895C36.8211 24.3193 35.7212 24.3894 34.8937 23.9239C34.5305 23.7297 34.3604 23.3286 34.3662 22.9298Z" fill="white"/>
<path d="M18.941 24.9296C19.1283 24.7825 19.3225 24.6434 19.5237 24.5158L19.4352 24.5997C19.8788 24.6135 20.3225 24.6043 20.7661 24.6032C22.3545 24.6032 23.944 24.6032 25.5324 24.602C25.5301 24.6871 25.5266 24.8572 25.5243 24.9422C24.1061 24.9962 22.6866 24.9491 21.2684 24.9629C20.4926 24.9468 19.7156 24.9939 18.941 24.9296Z" fill="white"/>
<path d="M17.0354 0.569478C18.4192 0.410871 19.8248 0.398229 21.2097 0.552239C21.9177 0.713146 22.6407 0.808539 23.3452 0.994731C27.5908 2.03488 31.4055 4.65306 33.9547 8.1976C33.6363 8.32518 33.2984 8.39069 32.9605 8.43551C32.6238 8.30104 32.2801 8.18151 31.9399 8.05738L32.0939 8.03899C29.8493 5.46449 26.7702 3.64165 23.4463 2.86814C22.6062 2.69919 21.7626 2.50955 20.9017 2.52334C19.7719 2.38542 18.626 2.38313 17.4963 2.5199C17.025 2.52794 16.5526 2.55553 16.0895 2.64862C13.2874 3.11065 10.6014 4.29102 8.38894 6.07478C6.06499 7.92751 4.26973 10.4331 3.23763 13.219C1.95613 16.6429 1.87337 20.4863 2.99167 23.9664C2.66067 24.2262 2.33081 24.4905 1.98141 24.7273C1.12056 22.2183 0.882649 19.5116 1.16538 16.8797C1.52857 13.4501 2.92386 10.148 5.07082 7.45398C7.589 4.25769 11.2002 1.95442 15.1424 0.96255C15.7677 0.806241 16.4055 0.70395 17.0354 0.569478Z" fill="#00BD62"/>
<path d="M6.55346 5.03923C9.45897 2.50265 13.1805 0.863708 17.0354 0.569478C16.4055 0.70395 15.7677 0.806241 15.1424 0.96255C11.2002 1.95442 7.589 4.25769 5.07082 7.45398C2.92386 10.148 1.52857 13.4501 1.16538 16.8797C0.882649 19.5116 1.12056 22.2183 1.98141 24.7273L1.98831 24.748C1.77568 24.9192 1.5642 25.0928 1.35273 25.2663C0.0700703 21.7942 -0.112674 17.9301 0.817137 14.3477C1.73201 10.7606 3.76288 7.47122 6.55346 5.03923Z" fill="#4ECE8C"/>
<path d="M20.9017 2.52334C21.7626 2.50955 22.6062 2.69919 23.4463 2.86814C26.7702 3.64165 29.8493 5.46449 32.0939 8.03899L31.9399 8.05738C31.6629 7.97003 31.3871 7.87809 31.1101 7.79418L31.0722 7.78269C28.4402 4.89786 24.7681 3.02905 20.9017 2.52334Z" fill="#4ECE8C"/>
<path d="M33.9547 8.1976C33.9627 8.21024 33.98 8.23668 33.9892 8.24932C34.1811 8.54815 34.388 8.84008 34.5432 9.16189C34.0156 8.91938 33.4961 8.65963 32.9605 8.43551C33.2984 8.39069 33.6363 8.32518 33.9547 8.1976Z" fill="#4ECE8C"/>
<path d="M21.2097 0.552239C21.281 0.54994 21.4247 0.54649 21.4959 0.54534C26.7173 1.01312 31.6457 3.87381 34.7041 8.12289C34.465 8.16427 34.2271 8.20565 33.9892 8.24932C33.98 8.23668 33.9627 8.21024 33.9547 8.1976C31.4055 4.65306 27.5908 2.03488 23.3452 0.994731C22.6407 0.808539 21.9177 0.713146 21.2097 0.552239Z" fill="#72D69E"/>
<path d="M16.0895 2.64862C16.5526 2.55553 17.025 2.52794 17.4963 2.5199C15.4171 2.84286 13.3747 3.47154 11.5393 4.51054C8.24987 6.34143 5.611 9.31935 4.21686 12.8191C3.1204 15.5453 2.76755 18.5692 3.22844 21.4724C3.79736 25.1997 5.69146 28.7224 8.52571 31.2141C8.41538 31.5969 8.33492 31.998 8.374 32.3991C9.01073 32.606 9.71987 32.583 10.3842 32.7083C10.4106 32.7175 10.4646 32.7336 10.4911 32.7428C11.7197 33.5898 13.0932 34.1944 14.4919 34.6978C15.3573 35.5552 16.2435 36.3999 17.2652 37.0711C17.2158 37.1493 17.1675 37.2297 17.1204 37.3102C15.3309 37.0091 13.5598 36.5482 11.9116 35.7758C7.26949 33.6749 3.59392 29.5832 1.98831 24.748L1.98141 24.7273C2.33081 24.4905 2.66067 24.2262 2.99167 23.9664C1.87337 20.4863 1.95613 16.6429 3.23763 13.219C4.26973 10.4331 6.06499 7.92751 8.38894 6.07478C10.6014 4.29102 13.2874 3.11065 16.0895 2.64862Z" fill="#72D69E"/>
<path d="M19.7237 8.69871C23.236 7.04482 27.3368 6.78277 31.0722 7.78269L31.1101 7.79418C31.3675 8.12174 31.6365 8.44011 31.8951 8.76652C31.4411 8.68032 31.0193 8.48838 30.578 8.35851C29.2344 7.95854 27.8345 7.72867 26.43 7.73672C25.029 7.71603 23.6061 7.81143 22.2614 8.23323C21.7396 8.36081 21.2201 8.50333 20.7247 8.7148C20.3903 8.7286 20.057 8.72055 19.7237 8.69871Z" fill="#7FAC9A"/>
<path d="M13.2012 33.0875C13.6 33.1358 14 33.1669 14.3977 33.2278C14.4861 33.2439 14.5746 33.2622 14.6643 33.2818C15.3849 34.0369 16.2285 34.6621 17.0825 35.2575C16.1929 35.2265 15.3447 34.9242 14.4919 34.6978C14.0483 34.1714 13.5989 33.6496 13.2012 33.0875Z" fill="#7FAC9A"/>
<path d="M34.2225 35.9632C35.6224 36.0816 37.0223 35.7643 38.2716 35.1345C35.8499 37.663 32.5249 39.279 29.0735 39.7997C26.045 40.2502 22.8924 39.8548 20.0811 38.6354C19.3283 38.2883 18.5502 37.9584 17.8916 37.4481C18.8191 37.4401 19.7489 37.4814 20.6742 37.4113C21.0983 37.3906 21.5166 37.4803 21.92 37.6067C23.2693 38.0101 24.6819 38.1929 26.0887 38.1733C28.8781 38.2354 31.6698 37.4493 34.0489 36.0011C34.0926 35.9919 34.1788 35.9724 34.2225 35.9632Z" fill="#7FAC9A"/>
<path d="M22.2614 8.23323C23.6061 7.81143 25.029 7.71603 26.43 7.73672C27.8345 7.72867 29.2344 7.95854 30.578 8.35851C31.0193 8.48838 31.4411 8.68032 31.8951 8.76652C31.9399 8.82399 31.9847 8.8826 32.0296 8.94237C32.3146 9.37452 32.6111 9.79977 32.8996 10.2308C32.8582 10.2538 32.7755 10.302 32.7341 10.3262C30.8078 9.10902 28.5885 8.34701 26.3162 8.15623C24.9646 8.09071 23.6096 8.11485 22.2614 8.23323Z" fill="#249166"/>
<path d="M26.2116 37.432C28.2391 37.2608 30.2194 36.6436 32.0135 35.6896C32.6743 35.8908 33.3616 35.9701 34.0489 36.0011C31.6698 37.4493 28.8781 38.2354 26.0887 38.1733C24.6819 38.1929 23.2693 38.0101 21.92 37.6067C21.5166 37.4803 21.0983 37.3906 20.6742 37.4113C20.8086 37.3861 20.9431 37.3619 21.0787 37.3378C21.281 37.3378 21.4833 37.3332 21.6856 37.3148C22.5108 37.2573 23.3234 37.4619 24.1474 37.4504C24.8359 37.4447 25.5243 37.4688 26.2116 37.432Z" fill="#249166"/>
<path d="M31.1101 7.79418C31.3871 7.87809 31.6629 7.97003 31.9399 8.05738C32.2801 8.18151 32.6238 8.30104 32.9605 8.43551C33.4961 8.65963 34.0156 8.91938 34.5432 9.16189C34.6282 9.22855 34.711 9.29751 34.7926 9.36992C34.442 9.48026 34.1018 9.61588 33.7651 9.75954C33.2352 9.4021 32.6709 9.04581 32.0296 8.94237C31.9847 8.8826 31.9399 8.82399 31.8951 8.76652C31.6365 8.44011 31.3675 8.12174 31.1101 7.79418Z" fill="#00AD60"/>
<path d="M22.2614 8.23323C23.6096 8.11485 24.9646 8.09071 26.3162 8.15623C28.5885 8.34701 30.8078 9.10902 32.7341 10.3262C31.5216 11.1204 30.5711 12.2432 29.801 13.4581L29.7412 13.2811C29.1367 14.0408 28.7609 14.9545 28.3816 15.8407C27.9793 17.0819 27.323 18.2232 26.9748 19.484C26.553 20.9989 26.2369 22.547 26.1082 24.1159C26.0921 24.8825 25.9404 25.6433 25.9875 26.4122C26.0898 27.7144 26.1576 29.0385 26.5921 30.2832C26.8495 31.2095 27.2794 32.0727 27.7483 32.9083C24.6773 34.8518 20.9511 35.7931 17.3262 35.4C17.2434 35.3529 17.1618 35.3058 17.0825 35.2575C16.2285 34.6621 15.3849 34.0369 14.6643 33.2818C17.4813 33.5979 20.2811 34.0771 23.1027 34.3472C23.2544 33.7277 23.3211 33.0921 23.3785 32.4577C23.5004 32.4669 23.6222 32.475 23.7452 32.483C23.7831 32.2968 23.8233 32.1118 23.8567 31.9267C23.9452 31.9244 24.1233 31.9198 24.2118 31.9175C24.2842 31.3716 24.3589 30.8257 24.4003 30.2763C24.5359 30.2774 24.6704 30.2797 24.806 30.2832C24.929 29.5867 25.0071 28.8844 25.1083 28.1856C25.2405 27.1041 25.4427 26.0295 25.5243 24.9422C25.5266 24.8572 25.5301 24.6871 25.5324 24.602C23.944 24.6032 22.3545 24.6032 20.7661 24.6032C22.2315 23.3699 23.7233 22.0792 24.6417 20.3656C24.7359 20.1828 24.7669 19.9771 24.8175 19.7806C25.1692 19.2599 25.5266 18.7404 25.7967 18.1715C26.6254 16.4556 27.0116 14.4511 26.5507 12.5766C26.2909 11.5249 25.699 10.5376 24.8336 9.87562C23.6578 9.00328 22.151 8.77917 20.7247 8.7148C21.2201 8.50333 21.7396 8.36081 22.2614 8.23323Z" fill="#008B4B"/>
<path d="M17.5847 17.0394C17.6664 16.6061 17.7342 16.1705 17.8399 15.743C18.0997 15.9602 18.4858 16.0993 18.5789 16.459C18.7191 17.0406 18.5858 17.6394 18.5513 18.2255C17.7571 19.1783 16.7917 19.9668 15.8435 20.7587C14.2517 22.0574 12.5932 23.2734 10.9025 24.4377C10.6405 22.2459 10.9646 20.0254 11.622 17.9279C11.4852 17.8807 11.3496 17.8359 11.2128 17.7945C12.5691 17.852 13.9276 17.821 15.2849 17.8313C15.8228 17.8267 16.3837 17.9049 16.8894 17.6738C16.9882 17.6589 17.0871 17.644 17.1871 17.6302C17.2193 17.4693 17.2514 17.3084 17.2836 17.1475C17.3836 17.1107 17.4848 17.075 17.5847 17.0394Z" fill="#008B4B"/>
<path d="M34.5248 18.4968C34.8167 18.4473 35.1075 18.3956 35.4017 18.3589C35.4626 20.084 35.2684 21.8218 34.7684 23.4757C34.619 23.3044 34.488 23.1205 34.3662 22.9298C34.0432 21.662 34.2029 20.346 34.4098 19.0737C34.4443 18.8806 34.4811 18.6876 34.5248 18.4968Z" fill="#008B4B"/>
<path d="M23.1107 37.1206C25.3703 36.6781 27.5506 35.8276 29.5091 34.615C30.2987 35.1 31.1687 35.5195 32.0951 35.6402L32.0135 35.6896C30.2194 36.6436 28.2391 37.2608 26.2116 37.432C25.5243 37.4688 24.8359 37.4447 24.1474 37.4504C23.3234 37.4619 22.5108 37.2573 21.6856 37.3148C22.1499 37.1826 22.6349 37.1861 23.1107 37.1206Z" fill="#008B4B"/>
<path d="M32.0296 8.94237C32.6709 9.04581 33.2352 9.4021 33.7651 9.75954C33.472 9.90896 33.1835 10.0653 32.8996 10.2308C32.6111 9.79977 32.3146 9.37452 32.0296 8.94237Z" fill="#00A14B"/>
<path d="M17.0698 9.09638C17.2457 9.10212 17.4215 9.10672 17.5974 9.10902C15.3458 9.64116 13.4035 11.2157 12.3197 13.2466C11.7427 14.3695 11.322 15.5982 11.2255 16.8613C11.2186 16.913 11.2048 17.0164 11.1991 17.0682C11.2715 17.0693 11.4186 17.0739 11.4921 17.075C11.3979 17.3141 11.3036 17.5543 11.2128 17.7945C11.1853 17.7945 11.1324 17.7945 11.106 17.7934C10.8336 17.7957 10.56 17.798 10.2876 17.798C10.2853 17.113 10.4589 16.4475 10.6382 15.7924C10.9968 14.5201 11.5542 13.2891 12.3875 12.2547C13.5471 10.7284 15.247 9.64806 17.1066 9.19522L17.0698 9.09638Z" fill="#008730"/>
<path d="M44.8619 23.1263C45.1492 22.2919 45.3296 21.4276 45.5055 20.5644C45.2216 22.9389 44.5929 25.3089 43.37 27.3811C43.1505 27.7684 42.8643 28.1167 42.6908 28.5293C42.5574 28.6396 42.4241 28.7523 42.2954 28.8684C42.5069 28.1811 42.8333 27.5317 42.9701 26.8225C43.793 25.7008 44.4309 24.448 44.8619 23.1263Z" fill="#008730"/>
<path d="M9.21531 26.2984C9.53138 26.0559 9.90261 25.8571 10.1049 25.4997C9.98192 25.91 9.96697 26.3421 9.90031 26.7639C9.77159 27.8144 9.58195 28.858 9.49115 29.9119C9.32679 30.1292 9.3176 30.4004 9.30496 30.6613C10.1796 30.8142 11.068 30.8705 11.9427 31.0279C12.1024 31.3291 12.2668 31.629 12.4059 31.9405C11.1278 31.9853 9.84859 31.9428 8.57053 31.9911C8.55329 31.7313 8.53376 31.4727 8.52571 31.2141C8.74523 29.574 8.93143 27.9282 9.21531 26.2984Z" fill="#008730"/>
<path d="M12.8323 12.8053C14.0506 10.9514 16.0906 9.65725 18.2824 9.31475C18.6858 9.30211 19.0536 9.51129 19.4271 9.63886C21.5385 10.3951 23.6452 11.1652 25.7623 11.9076C26.1277 11.9881 26.3243 12.3111 26.5507 12.5766C27.0116 14.4511 26.6254 16.4556 25.7967 18.1715C24.0164 17.4969 22.2177 16.8716 20.4282 16.2199C20.2179 16.1372 20.0121 16.0418 19.8064 15.9487C19.8972 15.5706 19.9328 15.1189 19.6455 14.8143C19.3202 14.4707 18.7789 14.5408 18.3996 14.7488C17.9066 14.6465 17.433 14.4753 16.9687 14.2868C15.5861 13.8017 14.208 13.3087 12.8323 12.8053Z" fill="#F9F9F9"/>
<path d="M33.6409 10.1825C35.4672 9.34579 37.5211 9.16189 39.5014 9.35038C40.73 9.48141 41.9495 9.86528 42.9816 10.5549C43.8424 11.2353 44.578 12.0996 44.9998 13.1202C45.6078 14.5178 45.8319 16.0705 45.7583 17.5877C44.6343 17.3382 43.5654 16.9015 42.4586 16.5935C38.4624 15.3396 34.4765 14.0592 30.4757 12.8237C31.3009 11.7054 32.3939 10.7962 33.6409 10.1825Z" fill="#F4F4F4"/>
<path d="M12.3197 13.2466C12.6116 13.3271 12.692 12.98 12.8323 12.8053C14.208 13.3087 15.5861 13.8017 16.9687 14.2868C17.433 14.4753 17.9066 14.6465 18.3996 14.7488C18.2272 14.9097 18.0893 15.1028 17.9859 15.3143C17.933 15.4556 17.8836 15.5982 17.8399 15.743C17.7342 16.1705 17.6664 16.6061 17.5847 17.0394C15.4619 17.0187 13.338 17.036 11.2151 17.0291L11.2255 16.8613C11.322 15.5982 11.7427 14.3695 12.3197 13.2466Z" fill="#F3F3F3"/>
<path d="M30.4757 12.8237C34.4765 14.0592 38.4624 15.3396 42.4586 16.5935C43.5654 16.9015 44.6343 17.3382 45.7583 17.5877C45.8124 18.4692 45.6239 19.3392 45.6492 20.2196C45.6066 20.3357 45.5584 20.4506 45.5055 20.5644C45.3296 21.4276 45.1492 22.2919 44.8619 23.1263C42.8287 22.4919 40.7863 21.8873 38.775 21.1862C39.1186 19.8541 39.3002 18.468 39.1842 17.0923C39.129 16.6107 38.9704 16.0935 38.5555 15.8027C38.1222 15.4717 37.5533 15.4579 37.0326 15.4752C36.3798 15.5177 35.7258 15.8154 35.3523 16.3671C34.9247 17.0061 34.7029 17.7566 34.5248 18.4968C34.4811 18.6876 34.4443 18.8806 34.4098 19.0737C32.5904 18.4221 30.732 17.8876 28.8896 17.3061C28.6816 17.2337 28.4919 17.121 28.3057 17.0072L28.3632 16.7969C28.6321 15.9338 28.9379 15.0775 29.3585 14.2753C29.3987 14.281 29.4792 14.2937 29.5194 14.3006C29.832 13.8052 30.147 13.3098 30.4757 12.8237Z" fill="#EEEEEE"/>
<path d="M28.3816 15.8407C28.7609 14.9545 29.1367 14.0408 29.7412 13.2811L29.801 13.4581C29.6665 13.7374 29.4941 13.996 29.3585 14.2753C28.9379 15.0775 28.6321 15.9338 28.3632 16.7969C28.0747 17.0268 27.9667 17.3888 27.8391 17.7198C27.1897 19.3978 26.8426 21.1805 26.6691 22.9677C26.4473 25.2617 26.6013 27.6581 27.5541 29.7855C27.9356 30.5901 28.4126 31.3681 29.0769 31.9715L29.0401 31.9991C28.6287 32.329 28.1919 32.6232 27.7483 32.9083C27.2794 32.0727 26.8495 31.2095 26.5921 30.2832C26.1576 29.0385 26.0898 27.7144 25.9875 26.4122C25.9404 25.6433 26.0921 24.8825 26.1082 24.1159C26.2369 22.547 26.553 20.9989 26.9748 19.484C27.323 18.2232 27.9793 17.0819 28.3816 15.8407Z" fill="#00843E"/>
<path d="M17.9859 15.3143C18.3583 15.2775 18.8099 15.1752 19.1007 15.4798C19.4375 15.8751 19.372 16.4372 19.449 16.9176V16.9245C19.1938 17.3865 18.8869 17.8187 18.5513 18.2255C18.5858 17.6394 18.7191 17.0406 18.5789 16.459C18.4858 16.0993 18.0997 15.9602 17.8399 15.743C17.8836 15.5982 17.933 15.4556 17.9859 15.3143Z" fill="#00843E"/>
<path d="M12.4059 31.9405C13.0644 31.8762 13.7161 32.0256 14.3735 32.0371C15.7895 32.0302 17.2055 32.0267 18.6214 32.0417C18.8709 32.0417 19.118 32.0072 19.3639 31.9773C20.7063 32.0934 22.0407 32.2968 23.3785 32.4577C23.3211 33.0921 23.2544 33.7277 23.1027 34.3472C20.2811 34.0771 17.4813 33.5979 14.6643 33.2818C14.5746 33.2622 14.4861 33.2439 14.3977 33.2278C14.1011 32.8209 13.8241 32.3807 13.4207 32.0715C13.1265 32.0003 12.8196 32.0428 12.5196 32.0279L12.4725 32.0256L12.4059 31.9405Z" fill="#00843E"/>
<path d="M29.5091 34.615C30.1159 34.2242 30.709 33.8105 31.2836 33.3737L31.3216 33.3887C32.3111 33.722 33.3398 33.9404 34.3834 34.0001C33.6835 34.6323 32.8674 35.1069 32.0951 35.6402C31.1687 35.5195 30.2987 35.1 29.5091 34.615Z" fill="#00843E"/>
<path d="M73.3952 13.8454C77.0075 13.8236 80.621 13.8535 84.2334 13.8305C84.107 14.9315 83.9645 16.0349 83.7748 17.1279C82.6416 17.1291 81.5083 17.1245 80.3762 17.1302C80.3418 17.3946 80.3096 17.6578 80.2739 17.9221C79.859 20.8644 79.4832 23.8124 79.0442 26.7501L78.9833 26.7513C77.6546 26.7639 76.326 26.7536 74.9962 26.7559C75.4215 23.5446 75.8674 20.3369 76.3179 17.1279C75.1927 17.1268 74.0676 17.1291 72.9424 17.1279C73.0619 16.1131 73.2124 15.1016 73.3504 14.0902C73.3619 14.0282 73.3837 13.9063 73.3952 13.8454Z" fill="#000D26"/>
<path d="M51.6038 13.842C53.7117 13.8316 55.8207 13.842 57.9298 13.8374C58.7803 13.8247 59.6549 13.9029 60.4434 14.2465C61.1157 14.5385 61.6961 15.1016 61.8766 15.8292C62.1903 17.1348 61.7582 18.6106 60.7295 19.4909C60.3824 19.761 59.9733 19.93 59.6124 20.1794C59.7905 20.2426 59.9721 20.3035 60.1468 20.3771C60.9755 20.7908 61.4272 21.7333 61.449 22.6321C61.4352 23.7193 61.033 24.8261 60.233 25.5824C59.2618 26.4352 57.9424 26.7432 56.6782 26.7513C54.3933 26.7628 52.1084 26.7536 49.8235 26.7559C50.3821 22.5344 50.9867 18.3186 51.5521 14.0983C51.5648 14.0339 51.5912 13.9063 51.6038 13.842ZM55.2036 17.1245C55.1714 17.3969 55.1392 17.6693 55.1013 17.9405C55.0518 18.2474 55.0185 18.5565 54.9921 18.8669C55.7219 18.837 56.4586 18.9105 57.1781 18.7531C57.608 18.5244 57.8171 17.9796 57.6401 17.5244C57.516 17.2417 57.1862 17.1498 56.9046 17.1337C56.3379 17.1049 55.7702 17.1256 55.2036 17.1245ZM54.5841 21.7184C54.5404 21.9884 54.5002 22.2597 54.468 22.5321C54.4243 22.8378 54.3737 23.1435 54.3737 23.455C54.6772 23.4584 54.9817 23.4607 55.284 23.4263C55.8001 23.5067 56.3161 23.4182 56.8276 23.3481C57.2367 23.1194 57.4402 22.6022 57.293 22.1574C57.1861 21.8574 56.8494 21.7425 56.5598 21.7275C55.9012 21.7034 55.2426 21.7252 54.5841 21.7184Z" fill="#000D26"/>
<path d="M64.0201 13.8454C66.8854 13.8247 69.753 13.8477 72.6194 13.8351C72.4688 14.9327 72.3528 16.0383 72.1493 17.1291C70.6414 17.1291 69.1346 17.1245 67.6278 17.1314C67.5922 17.3992 67.5589 17.6681 67.5221 17.9359C67.4888 18.1681 67.4577 18.4002 67.429 18.6347C68.7599 18.6324 70.092 18.6232 71.4229 18.6393C71.2609 19.6714 71.1701 20.7161 70.9678 21.7413C69.6461 21.7367 68.3255 21.7413 67.0038 21.739C66.9635 22.0011 66.9245 22.2643 66.8911 22.5275C66.8509 22.8389 66.8049 23.1493 66.7567 23.4596C68.2692 23.4538 69.7828 23.4665 71.2954 23.4538C71.1437 24.5561 71.0345 25.6675 70.8172 26.7593C67.96 26.7536 65.1028 26.7582 62.2455 26.757C62.8133 22.4999 63.4086 18.2462 63.9971 13.9914L64.0201 13.8454Z" fill="#000D26"/>
<path d="M63.404 15.1522C63.4213 14.6913 63.7442 14.3465 63.9971 13.9914C63.4086 18.2462 62.8133 22.4999 62.2455 26.757C65.1028 26.7582 67.96 26.7536 70.8172 26.7593C70.6483 27.0191 70.4851 27.2811 70.3184 27.542C67.4543 27.611 64.5856 27.5593 61.7203 27.5708C62.2386 23.4263 62.8581 19.2944 63.404 15.1522Z" fill="#D1E2F0"/>
<path d="M50.9855 15.1499C51.0096 14.7339 51.2372 14.3603 51.5521 14.0983C50.9867 18.3186 50.3821 22.5344 49.8235 26.7559C52.1084 26.7536 54.3933 26.7628 56.6782 26.7513C57.9424 26.7432 59.2618 26.4352 60.233 25.5824C60.002 26.2927 59.3147 26.7306 58.6849 27.0604C57.8378 27.4535 56.8954 27.5799 55.969 27.5731C53.7428 27.5696 51.5176 27.5914 49.2914 27.5627C49.8327 23.4217 50.4189 19.2875 50.9855 15.1499Z" fill="#D1E2F0"/>
<path d="M72.7906 15.0419C72.8343 14.6614 73.0688 14.3362 73.3504 14.0902C73.2124 15.1016 73.0619 16.1131 72.9424 17.1279C74.0676 17.1291 75.1927 17.1268 76.3179 17.1279C75.8674 20.3369 75.4215 23.5446 74.9962 26.7559C76.326 26.7536 77.6546 26.7639 78.9833 26.7513C78.858 27.0455 78.6775 27.311 78.4867 27.5662C77.1466 27.5822 75.8065 27.5719 74.4675 27.5662C74.7652 25.0698 75.1548 22.5838 75.4789 20.0897C75.5513 19.3737 75.7283 18.668 75.7249 17.9462C74.6181 17.9462 73.5101 17.9784 72.4056 17.9302C72.5148 16.9647 72.6734 16.0062 72.7906 15.0419Z" fill="#D1E2F0"/>
<path d="M55.2036 17.1245C55.7702 17.1256 56.3379 17.1049 56.9046 17.1337C57.1862 17.1498 57.516 17.2417 57.6401 17.5244C57.8171 17.9796 57.608 18.5244 57.1781 18.7531C57.1126 18.5347 57.1321 18.2416 56.8931 18.1278C56.3437 17.8417 55.6955 17.9842 55.1013 17.9405C55.1392 17.6693 55.1714 17.3969 55.2036 17.1245Z" fill="#D1E2F0"/>
<path d="M67.6278 17.1314C69.1346 17.1245 70.6414 17.1291 72.1493 17.1291C71.8965 17.4394 71.7677 18.0278 71.2643 17.9508C70.0173 17.9428 68.7691 17.9738 67.5221 17.9359C67.5589 17.6681 67.5922 17.3992 67.6278 17.1314Z" fill="#D1E2F0"/>
<path d="M80.3762 17.1302C81.5083 17.1245 82.6416 17.1291 83.7748 17.1279C83.5944 17.4038 83.4128 17.6784 83.2197 17.9451C82.2382 17.9439 81.2543 17.9773 80.2739 17.9221C80.3096 17.6578 80.3418 17.3946 80.3762 17.1302Z" fill="#D1E2F0"/>
<path d="M54.5841 21.7184C55.2426 21.7252 55.9012 21.7034 56.5598 21.7275C56.8494 21.7425 57.1861 21.8574 57.293 22.1574C57.4402 22.6022 57.2367 23.1194 56.8276 23.3481C56.7678 23.0424 56.6667 22.6918 56.3196 22.6114C55.715 22.4689 55.0829 22.5815 54.468 22.5321C54.5002 22.2597 54.5404 21.9884 54.5841 21.7184Z" fill="#D1E2F0"/>
<path d="M67.0038 21.739C68.3255 21.7413 69.6461 21.7367 70.9678 21.7413C70.7908 21.9988 70.6414 22.2769 70.4276 22.5068C70.1357 22.5827 69.8288 22.5447 69.53 22.5539C68.6507 22.5344 67.7692 22.5941 66.8911 22.5275C66.9245 22.2643 66.9635 22.0011 67.0038 21.739Z" fill="#D1E2F0"/>
<path d="M18.3996 14.7488C18.7789 14.5408 19.3202 14.4707 19.6455 14.8143C19.9328 15.1189 19.8972 15.5706 19.8064 15.9487C19.7271 16.2855 19.5788 16.5992 19.449 16.9176C19.372 16.4372 19.4375 15.8751 19.1007 15.4798C18.8099 15.1752 18.3583 15.2775 17.9859 15.3143C18.0893 15.1028 18.2272 14.9097 18.3996 14.7488Z" fill="#00634F"/>
<path d="M11.1991 17.0682C11.2048 17.0164 11.2186 16.913 11.2255 16.8613L11.2151 17.0291C13.338 17.036 15.4619 17.0187 17.5847 17.0394C17.4848 17.075 17.3836 17.1107 17.2836 17.1475C17.2514 17.3084 17.2193 17.4693 17.1871 17.6302C17.0871 17.644 16.9882 17.6589 16.8894 17.6738C15.9584 17.4762 15.0056 17.4175 14.0655 17.2819C13.2127 17.1612 12.3541 17.0808 11.4921 17.075C11.4186 17.0739 11.2715 17.0693 11.1991 17.0682Z" fill="#00634F"/>
<path d="M27.8391 17.7198C27.9667 17.3888 28.0747 17.0268 28.3632 16.7969L28.3057 17.0072C27.8333 18.8335 27.5805 20.7242 27.6184 22.6102C27.7 24.4135 28.0609 26.272 29.0999 27.7845C29.6803 28.6316 30.5021 29.3039 31.4377 29.7235C30.6883 30.5084 29.9504 31.3199 29.0769 31.9715C28.4126 31.3681 27.9356 30.5901 27.5541 29.7855C26.6013 27.6581 26.4473 25.2617 26.6691 22.9677C26.8426 21.1805 27.1897 19.3978 27.8391 17.7198Z" fill="#00634F"/>
<path d="M21.7453 22.9125C22.8705 21.9747 23.9176 20.938 24.8175 19.7806C24.7669 19.9771 24.7359 20.1828 24.6417 20.3656C23.7233 22.0792 22.2315 23.3699 20.7661 24.6032C20.3225 24.6043 19.8788 24.6135 19.4352 24.5997L19.5237 24.5158C20.2972 24.0274 21.0373 23.4906 21.7453 22.9125Z" fill="#00634F"/>
<path d="M9.30496 30.6613C9.3176 30.4004 9.32679 30.1292 9.49115 29.9119C9.49345 29.9981 9.49805 30.1717 9.50035 30.2579C14.354 30.2866 19.2088 30.2625 24.0624 30.2728C24.0095 30.8257 23.9429 31.3773 23.8567 31.9267C23.8233 32.1118 23.7831 32.2968 23.7452 32.483C23.6222 32.475 23.5004 32.4669 23.3785 32.4577C22.0407 32.2968 20.7063 32.0934 19.3639 31.9773C18.3985 31.7854 17.4135 31.7221 16.44 31.5819C14.9447 31.3716 13.4403 31.2199 11.9427 31.0279C11.068 30.8705 10.1796 30.8142 9.30496 30.6613Z" fill="#00634F"/>
<path d="M35.3523 16.3671C35.7258 15.8154 36.3798 15.5177 37.0326 15.4752C37.2901 16.6981 37.4142 17.9497 37.3406 19.199C36.8855 18.6037 36.1499 18.2784 35.4017 18.3589C35.1075 18.3956 34.8167 18.4473 34.5248 18.4968C34.7029 17.7566 34.9247 17.0061 35.3523 16.3671Z" fill="#007454"/>
<path d="M37.0326 15.4752C37.5533 15.4579 38.1222 15.4717 38.5555 15.8027C38.9704 16.0935 39.129 16.6107 39.1842 17.0923C39.3002 18.468 39.1186 19.8541 38.775 21.1862C38.6175 21.777 38.39 22.3482 38.1003 22.8861C37.9291 23.1205 37.7268 23.3332 37.4912 23.5044C37.5337 22.131 37.8521 20.7081 37.3786 19.3714C37.3694 19.3277 37.3498 19.2415 37.3406 19.199C37.4142 17.9497 37.2901 16.6981 37.0326 15.4752Z" fill="#006655"/>
<path d="M35.7511 32.1589C36.7614 32.0876 37.7647 31.8716 38.721 31.5371C38.2888 32.3922 37.5487 33.0232 36.9866 33.7863C36.9441 33.8093 36.8602 33.8565 36.8177 33.8794C36.0097 33.9633 35.1971 34.0518 34.3834 34.0001C33.3398 33.9404 32.3111 33.722 31.3216 33.3887C31.8031 32.8968 32.3307 32.4531 32.8008 31.9497C33.757 32.2428 34.7661 32.1451 35.7511 32.1589Z" fill="#006655"/>
<path d="M19.449 16.9176C19.5788 16.5992 19.7271 16.2855 19.8064 15.9487C20.0121 16.0418 20.2179 16.1372 20.4282 16.2199C22.2177 16.8716 24.0164 17.4969 25.7967 18.1715C25.5266 18.7404 25.1692 19.2599 24.8175 19.7806C23.9176 20.938 22.8705 21.9747 21.7453 22.9125C20.3386 22.4286 18.9398 21.9206 17.5457 21.4023C17.0733 21.2471 16.5963 21.1023 16.1538 20.8724C17.4043 19.7679 18.7571 18.6726 19.5064 17.1452C19.4926 17.09 19.4628 16.9797 19.449 16.9245V16.9176Z" fill="#F0F0F0"/>
<path d="M27.6184 22.6102C27.5805 20.7242 27.8333 18.8335 28.3057 17.0072C28.4919 17.121 28.6816 17.2337 28.8896 17.3061C30.732 17.8876 32.5904 18.4221 34.4098 19.0737C34.2029 20.346 34.0432 21.662 34.3662 22.9298C34.3604 23.3286 34.5305 23.7297 34.8937 23.9239C35.7212 24.3894 36.8211 24.3193 37.6027 23.7895C37.8624 23.5676 38.221 23.2711 38.1003 22.8861C38.39 22.3482 38.6175 21.777 38.775 21.1862C40.7863 21.8873 42.8287 22.4919 44.8619 23.1263C44.4309 24.448 43.793 25.7008 42.9701 26.8225C42.8436 26.9823 42.7138 27.1409 42.5827 27.2984C40.1473 26.4846 37.6785 25.7789 35.2431 24.9652C32.6962 24.1998 30.1791 23.332 27.6184 22.6102Z" fill="#E8E8E8"/>
<path d="M11.4921 17.075C12.3541 17.0808 13.2127 17.1612 14.0655 17.2819C15.0056 17.4175 15.9584 17.4762 16.8894 17.6738C16.3837 17.9049 15.8228 17.8267 15.2849 17.8313C13.9276 17.821 12.5691 17.852 11.2128 17.7945C11.3036 17.5543 11.3979 17.3141 11.4921 17.075Z" fill="#007D30"/>
<path d="M24.0624 30.2728C24.1474 30.274 24.3164 30.2751 24.4003 30.2763C24.3589 30.8257 24.2842 31.3716 24.2118 31.9175C24.1233 31.9198 23.9452 31.9244 23.8567 31.9267C23.9429 31.3773 24.0095 30.8257 24.0624 30.2728Z" fill="#007D30"/>
<path d="M11.9427 31.0279C13.4403 31.2199 14.9447 31.3716 16.44 31.5819C17.4135 31.7221 18.3985 31.7854 19.3639 31.9773C19.118 32.0072 18.8709 32.0417 18.6214 32.0417C17.2055 32.0267 15.7895 32.0302 14.3735 32.0371C13.7161 32.0256 13.0644 31.8762 12.4059 31.9405C12.2668 31.629 12.1024 31.3291 11.9427 31.0279Z" fill="#007D30"/>
<path d="M11.106 17.7934C11.1324 17.7945 11.1853 17.7945 11.2128 17.7945C11.3496 17.8359 11.4852 17.8807 11.622 17.9279C10.9646 20.0254 10.6405 22.2459 10.9025 24.4377C10.6899 24.5848 10.4773 24.7319 10.2635 24.8802C10.052 22.4999 10.2267 20.0334 11.106 17.7934Z" fill="#1A9967"/>
<path d="M35.4017 18.3589C36.1499 18.2784 36.8855 18.6037 37.3406 19.199C37.3498 19.2415 37.3694 19.3277 37.3786 19.3714C37.3475 20.8655 37.1108 22.3447 36.7694 23.7975C36.0971 23.94 35.3396 23.8917 34.7684 23.4757C35.2684 21.8218 35.4626 20.084 35.4017 18.3589Z" fill="#009F3F"/>
<path d="M37.3786 19.3714C37.8521 20.7081 37.5337 22.131 37.4912 23.5044C37.2648 23.6331 37.0211 23.7297 36.7694 23.7975C37.1108 22.3447 37.3475 20.8655 37.3786 19.3714Z" fill="#008946"/>
<path d="M59.6124 20.1794C59.9733 19.93 60.3824 19.761 60.7295 19.4909C60.6882 19.8668 60.3342 20.0771 60.1468 20.3771C59.9721 20.3035 59.7905 20.2426 59.6124 20.1794Z" fill="#BDCFDE"/>
<path d="M12.5576 23.6504C13.7736 22.747 14.9919 21.8436 16.1538 20.8724C16.5963 21.1023 17.0733 21.2471 17.5457 21.4023C18.9398 21.9206 20.3386 22.4286 21.7453 22.9125C21.0373 23.4906 20.2972 24.0274 19.5237 24.5158C19.3225 24.6434 19.1283 24.7825 18.941 24.9296C19.7156 24.9939 20.4926 24.9468 21.2684 24.9629C22.6866 24.9491 24.1061 24.9962 25.5243 24.9422C25.4427 26.0295 25.2405 27.1041 25.1083 28.1856C24.5497 28.0604 24.0314 27.8156 23.4912 27.634C20.8178 26.672 18.1433 25.7169 15.4723 24.7503C14.5034 24.3779 13.4908 24.1078 12.5576 23.6504Z" fill="#E9E9E9"/>
<path d="M27.6184 22.6102C30.1791 23.332 32.6962 24.1998 35.2431 24.9652C37.6785 25.7789 40.1473 26.4846 42.5827 27.2984C41.5472 28.5465 40.153 29.4913 38.5991 29.9637C37.1705 30.4039 35.6511 30.5176 34.165 30.3935C33.2306 30.3016 32.2962 30.1131 31.4377 29.7235C30.5021 29.3039 29.6803 28.6316 29.0999 27.7845C28.0609 26.272 27.7 24.4135 27.6184 22.6102Z" fill="#E2E2E2"/>
<path d="M10.9198 24.8032C11.4669 24.4193 12.0208 24.0469 12.5576 23.6504C13.4908 24.1078 14.5034 24.3779 15.4723 24.7503C18.1433 25.7169 20.8178 26.672 23.4912 27.634C24.0314 27.8156 24.5497 28.0604 25.1083 28.1856C25.0071 28.8844 24.929 29.5867 24.806 30.2832C24.6704 30.2797 24.5359 30.2774 24.4003 30.2763C24.3164 30.2751 24.1474 30.274 24.0624 30.2728C19.2088 30.2625 14.354 30.2866 9.50035 30.2579C9.49805 30.1717 9.49345 29.9981 9.49115 29.9119C9.58195 28.858 9.77159 27.8144 9.90031 26.7639C9.96697 26.3421 9.98192 25.91 10.1049 25.4997C10.2922 25.1824 10.629 25.01 10.9198 24.8032Z" fill="#E3E3E3"/>
<path d="M42.5827 27.2984C42.7138 27.1409 42.8436 26.9823 42.9701 26.8225C42.8333 27.5317 42.5069 28.1811 42.2954 28.8684C42.2012 29.0431 42.1035 29.2166 42.015 29.3947C41.5564 29.674 41.2058 30.0901 40.7668 30.3935C40.145 30.8751 39.4347 31.2187 38.721 31.5371C37.7647 31.8716 36.7614 32.0876 35.7511 32.1589C34.7661 32.1451 33.757 32.2428 32.8008 31.9497C33.2881 31.4613 33.8156 30.9981 34.165 30.3935C35.6511 30.5176 37.1705 30.4039 38.5991 29.9637C40.153 29.4913 41.5472 28.5465 42.5827 27.2984Z" fill="#005E4E"/>
<path d="M42.2954 28.8684C42.4241 28.7523 42.5574 28.6396 42.6908 28.5293C42.6839 28.7132 42.6505 28.8913 42.5908 29.066C41.969 30.9337 41.0346 32.7439 39.6014 34.1197C39.3186 34.3679 39.0439 34.6472 38.6876 34.7886C39.868 33.399 40.9909 31.9141 41.6564 30.2016C41.7817 29.9349 41.8943 29.6637 42.015 29.3947C42.1035 29.2166 42.2012 29.0431 42.2954 28.8684Z" fill="#7BC39C"/>
<path d="M9.51069 32.0405C10.4968 31.9911 11.4852 32.0175 12.4725 32.0256L12.5196 32.0279C12.7242 32.3945 12.9575 32.745 13.2012 33.0875C12.299 32.9611 11.3979 32.8278 10.4911 32.7428C10.4646 32.7336 10.4106 32.7175 10.3842 32.7083C10.0865 32.4945 9.80032 32.2658 9.51069 32.0405Z" fill="#7BC39C"/>
<path d="M40.7668 30.3935C41.2058 30.0901 41.5564 29.674 42.015 29.3947C41.8943 29.6637 41.7817 29.9349 41.6564 30.2016C41.0116 30.9509 40.4944 31.8267 39.6945 32.4301C38.9141 33.0864 37.9877 33.5749 36.9866 33.7863C37.5487 33.0232 38.2888 32.3922 38.721 31.5371C39.4347 31.2187 40.145 30.8751 40.7668 30.3935Z" fill="#006B67"/>
<path d="M31.4377 29.7235C32.2962 30.1131 33.2306 30.3016 34.165 30.3935C33.8156 30.9981 33.2881 31.4613 32.8008 31.9497C32.3307 32.4531 31.8031 32.8968 31.3216 33.3887L31.2836 33.3737C30.4642 33.0439 29.7332 32.5393 29.0401 31.9991L29.0769 31.9715C29.9504 31.3199 30.6883 30.5084 31.4377 29.7235Z" fill="#007752"/>
<path d="M39.6945 32.4301C40.4944 31.8267 41.0116 30.9509 41.6564 30.2016C40.9909 31.9141 39.868 33.399 38.6876 34.7886C38.5658 34.9219 38.4256 35.0391 38.2716 35.1345C37.0223 35.7643 35.6224 36.0816 34.2225 35.9632C35.1259 35.3207 36.0718 34.7104 36.8177 33.8794C36.8602 33.8565 36.9441 33.8093 36.9866 33.7863C37.9877 33.5749 38.9141 33.0864 39.6945 32.4301Z" fill="#288D65"/>
<path d="M12.5196 32.0279C12.8196 32.0428 13.1265 32.0003 13.4207 32.0715C13.8241 32.3807 14.1011 32.8209 14.3977 33.2278C14 33.1669 13.6 33.1358 13.2012 33.0875C12.9575 32.745 12.7242 32.3945 12.5196 32.0279Z" fill="#288D65"/>
<path d="M8.374 32.3991C8.33492 31.998 8.41538 31.5969 8.52571 31.2141C8.53376 31.4727 8.55329 31.7313 8.57053 31.9911C9.84859 31.9428 11.1278 31.9853 12.4059 31.9405L12.4725 32.0256C11.4852 32.0175 10.4968 31.9911 9.51069 32.0405C9.80032 32.2658 10.0865 32.4945 10.3842 32.7083C9.71987 32.583 9.01073 32.606 8.374 32.3991Z" fill="#00B869"/>
<path d="M27.7483 32.9083C28.1919 32.6232 28.6287 32.329 29.0401 31.9991C29.7332 32.5393 30.4642 33.0439 31.2836 33.3737C30.709 33.8105 30.1159 34.2242 29.5091 34.615C27.5506 35.8276 25.3703 36.6781 23.1107 37.1206C22.6349 37.1861 22.1499 37.1826 21.6856 37.3148C21.4833 37.3332 21.281 37.3378 21.0787 37.3378C19.9535 36.9298 18.8513 36.4333 17.8767 35.731C17.6939 35.6172 17.5112 35.5069 17.3262 35.4C20.9511 35.7931 24.6773 34.8518 27.7483 32.9083Z" fill="#00A639"/>
<path d="M34.3834 34.0001C35.1971 34.0518 36.0097 33.9633 36.8177 33.8794C36.0718 34.7104 35.1259 35.3207 34.2225 35.9632C34.1788 35.9724 34.0926 35.9919 34.0489 36.0011C33.3616 35.9701 32.6743 35.8908 32.0135 35.6896L32.0951 35.6402C32.8674 35.1069 33.6835 34.6323 34.3834 34.0001Z" fill="#00824B"/>
<path d="M14.4919 34.6978C15.3447 34.9242 16.1929 35.2265 17.0825 35.2575C17.1618 35.3058 17.2434 35.3529 17.3262 35.4C17.5112 35.5069 17.6939 35.6172 17.8767 35.731C17.956 36.2597 17.4767 36.6332 17.2652 37.0711C16.2435 36.3999 15.3573 35.5552 14.4919 34.6978Z" fill="#00AD67"/>
<path d="M17.8767 35.731C18.8513 36.4333 19.9535 36.9298 21.0787 37.3378C20.9431 37.3619 20.8086 37.3861 20.6742 37.4113C19.7489 37.4814 18.8191 37.4401 17.8916 37.4481C17.633 37.4148 17.3767 37.3596 17.1204 37.3102C17.1675 37.2297 17.2158 37.1493 17.2652 37.0711C17.4767 36.6332 17.956 36.2597 17.8767 35.731Z" fill="#00AD4B"/>
</g>
<defs>
<clipPath id="clip0_405_26497">
<rect width="84" height="48" fill="white" transform="translate(0.5)"/>
</clipPath>
</defs>
</svg>
