<svg width="133" height="26" viewBox="0 0 133 26" fill="none" xmlns="http://www.w3.org/2000/svg">
<path d="M9.41813 2.79877C9.13536 1.88941 8.52484 0.986477 8.79154 0C9.94511 0.838666 11.1533 1.61307 12.233 2.54492C13.0556 3.2904 13.1005 4.47289 13.0781 5.50114C13.0427 10.2086 13.0427 14.9128 13.0781 19.6203C13.1005 20.655 13.0524 21.8439 12.2233 22.5894C11.1501 23.5052 9.95796 24.2763 8.80439 25.0893C8.68871 24.7005 8.69514 24.3181 8.82046 23.9454C10.1475 20.173 11.661 16.4649 12.8756 12.6539C9.13215 13.8974 5.40795 15.1956 1.67091 16.4488C1.13429 16.6512 0.565538 16.6769 0 16.648C1.20498 15.1474 2.15933 13.1198 4.15156 12.5607C3.31932 12.3069 2.55456 11.8506 2.04043 11.1372C1.34958 10.2022 0.404874 9.40527 0.0835454 8.24849C4.40541 9.45026 8.60196 11.0826 12.8724 12.4611C11.8506 9.19641 10.5492 6.02812 9.41813 2.79877Z" fill="#AF0114"/>
<path d="M48.1481 6.0615C48.9065 5.70804 49.5716 5.1168 50.4232 4.99148C51.2682 4.85973 52.123 4.89829 52.9745 4.91436C52.7624 5.94582 52.4893 6.96122 52.2065 7.9734C51.6089 7.94448 51.008 7.91878 50.4103 7.89629C51.4803 9.75999 51.6185 12.2824 50.1854 13.9983C48.6366 15.8781 45.9631 16.1769 43.6913 15.8845C43.8102 16.3922 43.9645 17.0156 44.575 17.112C46.7664 17.7803 49.2439 17.504 51.2425 18.7732C52.7142 19.6987 52.952 21.8323 52.0587 23.2365C51.0497 24.901 49.0479 25.5854 47.2259 25.8971C44.8867 26.0449 42.3417 26.2216 40.2531 24.9492C38.9132 24.2198 38.0327 22.5553 38.5694 21.0547C38.8425 20.0521 39.6844 19.3838 40.5487 18.8921C40.2242 18.3202 39.8161 17.7257 39.9286 17.0316C40.0218 16.0612 40.8058 15.3864 41.5191 14.8177C38.9839 13.1821 38.6015 9.21373 40.7672 7.11867C42.7016 5.23247 45.735 5.22283 48.1481 6.0615ZM44.7099 8.85063C43.0744 9.33583 43.0712 12.0511 44.6714 12.5973C45.7703 13.0472 47.1745 12.2117 47.0974 10.9714C47.3223 9.67644 45.9824 8.4072 44.7099 8.85063ZM42.9105 22.2822C44.3501 23.2108 46.3069 23.2076 47.8557 22.5521C48.4984 22.3079 48.5594 21.4017 47.8879 21.1479C46.217 20.457 44.3468 20.547 42.6052 20.1164C42.4478 20.8297 42.165 21.7905 42.9105 22.2822Z" fill="#000706"/>
<path d="M19.8936 7.1126C21.3139 6.16789 22.9495 5.371 24.7071 5.55094C26.0149 5.55094 27.1525 6.31892 27.9718 7.28611C29.3632 6.29642 30.9698 5.47061 32.7275 5.53487C34.2185 5.48346 35.7801 6.09398 36.622 7.37287C37.4157 8.50716 37.4542 9.9435 37.4542 11.2738C37.4382 13.9665 37.4639 16.6593 37.4382 19.3488C35.9858 19.368 34.5366 19.3584 33.0842 19.368C32.8817 16.5532 33.1324 13.7255 32.9492 10.9107C32.946 10.3034 32.6472 9.6543 32.0334 9.45508C30.8927 9.15946 29.7327 9.59646 28.7816 10.207C28.8394 13.2564 28.8169 16.3058 28.7912 19.352C27.3356 19.3681 25.8768 19.3648 24.4212 19.3552C24.1673 16.3668 24.675 13.3431 24.2509 10.3741C23.6789 8.71602 21.4328 9.39081 20.3307 10.1009C20.0961 13.1728 20.3082 16.2737 20.2278 19.3552C18.7561 19.3648 17.2845 19.3681 15.8128 19.352C15.7935 14.8598 15.7999 10.3709 15.8064 5.88191C17.0499 5.87227 18.2902 5.87227 19.5338 5.87548C19.6527 6.28678 19.7715 6.69808 19.8936 7.1126Z" fill="#000706"/>
<path d="M53.9641 6.77292C56.4801 5.65791 59.3239 5.17592 62.0327 5.78644C63.7229 6.15597 65.1785 7.5666 65.3777 9.32105C65.7922 12.6468 65.3167 16.0175 65.6669 19.3529C64.523 19.3433 63.3758 19.4236 62.2351 19.324C61.8913 19.0959 61.7306 18.691 61.4832 18.3793C59.5585 19.8156 56.6022 20.1691 54.6743 18.5657C52.6692 16.9301 52.5567 13.283 54.8349 11.8338C56.6761 10.5164 59.0315 10.7124 61.1715 10.5228C60.9337 10.0312 60.8534 9.34033 60.275 9.12504C58.6491 8.4631 56.885 9.07363 55.3234 9.62631C54.8414 8.68804 54.3786 7.74012 53.9641 6.77292ZM57.7237 14.1924C57.4859 14.8126 57.5502 15.6801 58.2249 15.995C59.1472 16.4288 60.169 16.04 61.0912 15.8183C61.0944 15.0086 61.0976 14.1988 61.1008 13.3923C59.9762 13.5176 58.5559 13.2348 57.7237 14.1924Z" fill="#000706"/>
<path d="M70.0529 5.55273C70.4127 5.56237 70.7758 5.57201 71.139 5.58165C71.7945 6.54564 72.466 7.49677 73.144 8.44469C73.7289 7.47428 74.349 6.52636 74.966 5.57523C75.3548 5.57844 75.75 5.57844 76.142 5.58165C76.097 7.61566 76.2449 9.65288 76.0392 11.6805C75.6568 11.6676 75.2744 11.6548 74.8953 11.6419C74.8728 10.3309 74.876 9.01987 74.8696 7.70885C74.4358 8.38364 74.0405 9.08092 73.5553 9.72036C73.3818 10.0578 72.7777 10.0353 72.6267 9.67859C72.1158 9.02308 71.6756 8.31616 71.2032 7.63494C71.1968 8.97809 71.2032 10.318 71.1775 11.658C70.808 11.6548 70.4385 11.6515 70.0721 11.6515C70.0304 9.61753 70.0529 7.58674 70.0529 5.55273Z" fill="#000706"/>
<path d="M79.0341 5.56886C79.2815 5.5528 79.7731 5.52388 80.0205 5.50781C80.8464 7.55146 81.6947 9.58868 82.4819 11.6484C82.1574 11.6516 81.5019 11.6548 81.1773 11.658C80.9685 11.1535 80.7628 10.6491 80.5572 10.1414C79.9017 10.1382 79.2461 10.1382 78.5938 10.1382C78.3593 10.6619 78.1247 11.1857 77.8805 11.703C77.5913 11.6837 77.0161 11.6484 76.7269 11.6323C77.4499 9.59189 78.2789 7.59323 79.0341 5.56886ZM79.5803 7.36187C79.3715 7.94027 79.1658 8.51866 78.9634 9.10026C79.2654 9.10026 79.8759 9.10026 80.178 9.10026C79.9756 8.51866 79.7795 7.94027 79.5803 7.36187Z" fill="#000706"/>
<path d="M83.0635 5.57926C83.4812 5.57604 83.899 5.56962 84.3199 5.56641C84.3295 7.22446 84.3295 8.8793 84.3199 10.5341C84.969 10.5309 85.6181 10.502 86.2672 10.5598C86.5467 10.9005 86.3121 11.315 86.2768 11.6941C85.1971 11.6813 84.1207 11.6684 83.0507 11.5527C83.086 9.56373 83.0699 7.57149 83.0635 5.57926Z" fill="#000706"/>
<path d="M85.8947 5.5702C87.5302 5.56377 89.1658 5.55735 90.8013 5.58305C90.6728 5.92366 90.5443 6.26427 90.4157 6.60488C89.8952 6.60166 89.3714 6.59845 88.8509 6.59845C88.8444 8.30149 88.8669 10.0077 88.8252 11.7108C88.4364 11.6208 87.9094 11.7686 87.6555 11.3798C87.5495 9.79245 87.6652 8.19545 87.617 6.60166C87.0514 6.60166 86.4891 6.60166 85.9236 6.60166C85.9139 6.25784 85.9043 5.91402 85.8947 5.5702Z" fill="#000706"/>
<path d="M92.3789 5.54102C92.7099 5.54102 93.0409 5.54102 93.3718 5.54423C94.143 7.60073 95.0974 9.59296 95.7432 11.6945C95.348 11.6302 94.8917 11.7427 94.5286 11.5563C94.2073 11.1386 94.0755 10.6084 93.8635 10.136C93.1951 10.1392 92.5299 10.1456 91.8616 10.1553C91.672 10.6566 91.4824 11.161 91.2896 11.6623C90.9747 11.6591 90.3417 11.6527 90.0268 11.6495C90.7691 9.59618 91.5852 7.57502 92.3789 5.54102ZM92.8127 7.97347C92.5139 8.22089 92.4432 8.52615 92.5942 8.88604C92.7452 8.90532 93.0441 8.93745 93.1919 8.95673C93.4072 8.64826 93.2176 8.00239 92.8127 7.97347Z" fill="#000706"/>
<path d="M99.6698 5.90673C100.759 5.29299 102.054 5.54684 103.22 5.73642C103.224 6.13487 103.227 6.53332 103.233 6.93176C102.375 6.68113 101.447 6.36301 100.57 6.7229C98.9886 7.27237 98.995 10.0101 100.608 10.5114C101.158 10.611 101.717 10.5596 102.273 10.5563C102.279 9.88798 102.285 9.21962 102.295 8.55126C102.604 8.55447 103.217 8.5609 103.526 8.56411C103.529 9.47668 103.523 10.3893 103.506 11.3018C102.173 11.6521 100.608 12.0152 99.3742 11.199C97.5233 10.0422 97.7129 6.85465 99.6698 5.90673Z" fill="#000706"/>
<path d="M106.35 5.55601C106.591 5.54316 107.073 5.51745 107.317 5.50781C108.166 7.54182 109.027 9.57261 109.772 11.6484C109.448 11.6516 108.799 11.658 108.474 11.6612C108.278 11.16 108.085 10.6587 107.896 10.1542C107.221 10.1446 106.549 10.1381 105.881 10.1349C105.688 10.6009 105.553 11.1053 105.27 11.5295C104.968 11.5777 104.358 11.6741 104.053 11.7223C104.679 9.6176 105.601 7.61572 106.35 5.55601ZM106.983 9.08098C107.417 8.86569 107.301 8.18126 106.964 7.93384C106.328 7.86315 106.222 9.29948 106.983 9.08098Z" fill="#000706"/>
<path d="M115.354 5.56949C115.726 5.57271 116.102 5.57592 116.478 5.57913C116.491 7.61314 116.51 9.65036 116.459 11.6876C116.07 11.5912 115.479 11.845 115.267 11.4016C115.18 10.1806 115.257 8.95308 115.231 7.72882C114.82 8.38112 114.438 9.05269 113.981 9.66964C113.821 10.0231 113.23 10.0713 113.05 9.71463C112.535 9.08161 112.105 8.38754 111.639 7.72239C111.629 9.03341 111.633 10.3444 111.613 11.6587C111.311 11.6555 110.704 11.6522 110.399 11.649C110.386 9.62787 110.395 7.60672 110.389 5.58556C110.665 5.57913 111.221 5.56628 111.498 5.55664C112.169 6.51099 112.838 7.46533 113.487 8.43574C114.12 7.48783 114.743 6.53348 115.354 5.56949Z" fill="#000706"/>
<path d="M127.911 6.22197C128.978 5.33189 130.517 5.39616 131.787 5.73677C131.973 6.09665 131.905 6.53045 131.973 6.92247C131.07 6.68147 130.09 6.33444 129.187 6.75859C127.722 7.4141 127.747 9.87869 129.232 10.4956C129.804 10.621 130.395 10.5631 130.977 10.5695C130.983 9.90118 130.99 9.23282 130.993 8.56767C131.298 8.56124 131.902 8.54839 132.208 8.54517C132.204 9.46739 132.201 10.3896 132.191 11.3118C130.842 11.6942 129.235 11.9962 128.001 11.1447C126.401 10.0393 126.411 7.40446 127.911 6.22197Z" fill="#000706"/>
<path d="M117.789 5.59589C118.101 5.58947 118.721 5.57019 119.03 5.56055C119.043 7.59455 119.049 9.62856 119.023 11.6626C118.718 11.6561 118.108 11.6433 117.802 11.6369C117.78 9.62214 117.793 7.61062 117.789 5.59589Z" fill="#000706"/>
<path d="M120.312 5.59551C120.608 5.57945 121.202 5.54732 121.498 5.53125C122.542 6.82942 123.557 8.14686 124.534 9.49644C124.528 8.19185 124.531 6.88725 124.534 5.58266C124.843 5.57623 125.466 5.56981 125.778 5.56338C125.778 7.61988 125.8 9.67317 125.758 11.7265C125.495 11.6718 124.965 11.5658 124.698 11.5112C123.551 10.258 122.622 8.81522 121.559 7.48814C121.559 8.87949 121.562 10.2708 121.552 11.6622C121.244 11.659 120.627 11.6493 120.318 11.6461C120.299 9.62818 120.309 7.61346 120.312 5.59551Z" fill="#000706"/>
<path d="M71.9424 14.1353C72.1417 13.6919 72.3055 13.0299 72.9353 13.0942C73.4013 13.2195 73.4848 13.7304 73.6712 14.1032C74.3396 15.8287 75.0593 17.5382 75.7052 19.2733C75.2682 19.2733 74.8312 19.2733 74.3974 19.2733C74.2014 18.7881 74.0054 18.3061 73.8094 17.8209C73.141 17.8241 72.4758 17.8274 71.8107 17.8306C71.634 18.3029 71.4572 18.7817 71.2869 19.2573C70.8499 19.2541 70.4129 19.2508 69.9791 19.2508C70.6282 17.5446 71.2934 15.8415 71.9424 14.1353ZM72.2188 16.7895C72.6237 16.7927 73.0317 16.7927 73.4366 16.7991C73.2406 16.2175 73.0414 15.6391 72.8486 15.0607C72.6365 15.6359 72.4244 16.2111 72.2188 16.7895Z" fill="#000706"/>
<path d="M76.0427 13.2804C76.4412 13.2772 76.8396 13.2708 77.2381 13.2676C77.283 14.6332 77.1352 16.0117 77.3312 17.3677C77.4469 18.6305 79.6609 18.6273 79.8183 17.3966C79.9533 16.0278 79.8408 14.6461 79.8697 13.274C80.1814 13.274 80.8016 13.2708 81.1101 13.2676C81.0747 14.7457 81.2161 16.2302 81.0394 17.6987C80.6249 20.0508 76.3383 19.9641 76.0909 17.5541C75.9881 16.1306 76.0909 14.7039 76.0427 13.2804Z" fill="#000706"/>
<path d="M81.7332 13.2698C83.372 13.2601 85.0076 13.2569 86.6463 13.273C86.5049 13.6104 86.3636 13.951 86.2254 14.2916C85.7145 14.2851 85.2036 14.2851 84.6959 14.2819C84.7023 15.9464 84.7055 17.6109 84.6894 19.2754C84.2749 19.2625 83.8604 19.2497 83.4491 19.2336C83.4427 17.5852 83.4427 15.9368 83.4459 14.2884C82.8836 14.2851 82.3212 14.2819 81.7589 14.2819C81.7493 13.9445 81.7396 13.6071 81.7332 13.2698Z" fill="#000706"/>
<path d="M95.1679 13.4101C97.0477 12.504 99.5733 13.9467 99.5058 16.0964C99.7822 18.214 97.5297 19.9266 95.5374 19.2679C92.8351 18.6927 92.6198 14.3452 95.1679 13.4101ZM95.8459 14.3291C94.0658 14.9107 94.3292 18.3329 96.36 18.2911C97.6839 18.4582 98.4294 16.9479 98.1755 15.8136C98.0952 14.7083 96.8838 13.9403 95.8459 14.3291Z" fill="#000706"/>
<path d="M100.476 13.2836C101.743 13.3479 103.59 12.8306 104.297 14.2412C104.827 15.1345 104.181 16.0631 103.474 16.6029C104.046 17.4673 104.567 18.3638 105.039 19.2893C104.561 19.2571 104.069 19.3182 103.609 19.1736C103.012 18.3703 102.739 17.2777 101.775 16.8054C101.743 17.628 101.736 18.4538 101.733 19.2796C101.312 19.27 100.891 19.2571 100.473 19.2443C100.476 17.2585 100.473 15.2694 100.476 13.2836ZM101.739 14.2733C101.739 14.8292 101.739 15.3851 101.739 15.9442C102.006 15.9249 102.539 15.8896 102.803 15.8735C102.919 15.6872 103.144 15.3112 103.256 15.1248C103.147 14.9353 102.925 14.5529 102.816 14.3601C102.546 14.3376 102.009 14.2958 101.739 14.2733Z" fill="#000706"/>
<path d="M105.727 13.25C106.145 13.2629 106.566 13.2757 106.987 13.2918C106.99 15.2744 106.987 17.2602 106.99 19.246C106.569 19.2588 106.148 19.2685 105.73 19.2813C105.73 17.2698 105.733 15.2615 105.727 13.25Z" fill="#000706"/>
<path d="M112.709 13.2539C113.14 13.2539 113.57 13.27 114.001 13.3021C114.611 14.0155 114.929 14.928 115.376 15.7474C115.829 14.9312 116.269 14.1086 116.697 13.2796C117.15 13.2732 117.603 13.27 118.059 13.2668C117.465 14.4171 116.739 15.4968 116.173 16.66C115.906 17.4922 116.064 18.3952 116.035 19.2595C115.614 19.266 115.193 19.2756 114.772 19.282C114.75 18.4562 114.888 17.5983 114.66 16.7949C114.094 15.5707 113.326 14.4525 112.709 13.2539Z" fill="#000706"/>
<path d="M87.1894 13.2676C87.5043 13.2676 88.1309 13.2676 88.4458 13.2676C88.4394 14.0645 88.4394 14.8614 88.4394 15.6615C89.3262 15.6647 90.2131 15.6647 91.1 15.6711C91.0968 14.871 91.0968 14.0677 91.1 13.2676C91.4117 13.2676 92.035 13.2676 92.3467 13.2676C92.3499 15.2695 92.366 17.2713 92.3339 19.2732C91.9226 19.27 91.5113 19.2668 91.1032 19.2668C91.0968 18.4024 91.0936 17.5412 91.0871 16.6769C90.2099 16.6737 89.3327 16.6737 88.4555 16.6737C88.4426 17.5316 88.4362 18.3928 88.4394 19.2507C88.0249 19.2604 87.6104 19.2732 87.1991 19.2828C87.1798 17.2778 87.1894 15.2727 87.1894 13.2676Z" fill="#000706"/>
<path d="M107.632 13.2718C109.268 13.2654 110.904 13.2429 112.539 13.2975C112.436 14.4607 111.408 14.3129 110.544 14.3032C110.55 15.9549 110.547 17.6097 110.544 19.2645C110.251 19.2678 109.666 19.2774 109.374 19.2838C109.364 17.6193 109.368 15.9549 109.368 14.2904C108.802 14.2872 108.233 14.2807 107.671 14.2807C107.661 14.0301 107.642 13.5256 107.632 13.2718Z" fill="#000706"/>
</svg>
