<svg width="74" height="51" viewBox="0 0 74 51" fill="none" xmlns="http://www.w3.org/2000/svg">
<path d="M33.2241 6.66872C34.5333 4.64059 35.7626 2.5592 37.0229 0.5C38.3454 2.52813 39.5348 4.64502 40.8706 6.66428C43.742 5.35065 46.6444 4.09028 49.5512 2.8521C48.8456 4.14798 48.0822 5.41722 47.3234 6.68203C48.8411 6.02078 50.3367 5.2974 51.8589 4.64502C50.1947 7.47642 48.5615 10.3211 46.9062 13.1525C45.9609 14.515 46.4136 16.2413 46.3071 17.7857C40.1339 17.8168 33.9563 17.8168 27.7787 17.7857C27.6811 16.2369 28.116 14.5105 27.1796 13.1481C25.5198 10.3211 23.8955 7.47198 22.2313 4.64502C23.7491 5.31071 25.2447 6.02078 26.758 6.69091C26.0124 5.41722 25.2491 4.14798 24.5435 2.8521C27.4459 4.09472 30.3527 5.34622 33.2241 6.66872ZM29.0391 6.64209C29.6959 7.85808 30.3749 9.05632 31.045 10.2634C31.4578 9.61106 31.8705 8.95425 32.2877 8.30188C31.2048 7.73826 30.1264 7.17908 29.0391 6.64209ZM41.8159 8.29744C42.2197 8.95425 42.6192 9.6155 43.023 10.2723C43.7109 9.06964 44.3943 7.86696 45.0467 6.64653C43.9505 7.16133 42.881 7.72938 41.8159 8.29744ZM36.2729 8.31075C35.1634 10.2413 34.0185 12.1496 32.869 14.0579C33.5835 14.0712 34.2936 14.0845 35.0037 14.1022C35.7004 12.975 36.3839 11.8345 37.0451 10.6895C37.7064 11.8345 38.3898 12.9706 39.0821 14.1022C39.7966 14.0845 40.5067 14.0712 41.2212 14.0579C39.8366 11.8256 38.5629 9.52231 37.1738 7.29447C36.659 7.32997 36.5614 7.98234 36.2729 8.31075ZM26.9577 8.70129C26.6826 9.30041 27.4414 10.3788 28.1116 9.99716C28.6264 9.35367 27.619 8.36844 26.9577 8.70129ZM45.9654 9.99273C46.6355 10.3877 47.3988 9.30485 47.137 8.70573C46.4757 8.36401 45.4683 9.34479 45.9654 9.99273ZM27.7521 14.0801C28.8571 14.0756 29.9578 14.0712 31.0628 14.0623C30.5169 13.1614 29.9844 12.2605 29.4651 11.3463C28.8793 12.2472 28.3113 13.1614 27.7521 14.0801ZM43.0274 14.0579C44.128 14.0667 45.2331 14.0667 46.3337 14.0756C45.7745 13.157 45.2065 12.2428 44.6251 11.3419C44.1014 12.2516 43.5644 13.157 43.0274 14.0579Z" fill="#FCB833"/>
<path d="M31.3428 21.7266C32.3014 22.2236 33.1668 22.876 33.9922 23.5727C36.9967 25.9914 39.9746 28.45 43.0057 30.8421C39.1225 33.9708 35.4346 37.3703 31.3517 40.2372C31.2496 34.0684 31.2718 27.8953 31.3428 21.7266ZM33.9567 26.8302C34.01 29.5462 33.9922 32.2666 33.9834 34.9871C35.6476 33.6468 37.2585 32.24 38.9583 30.9486C37.3517 29.5018 35.6653 28.1527 33.9567 26.8302Z" fill="#0E3B65"/>
<path d="M62.1729 27.3681C64.8711 25.5574 67.5427 23.7157 70.2233 21.8828C70.7957 22.5973 71.3771 23.3074 71.954 24.0219C70.1167 25.2334 68.2794 26.4406 66.4155 27.6077C68.7898 29.9021 71.2617 32.0945 73.6626 34.3667C70.9289 36.275 68.1774 38.1523 65.4569 40.0783C64.9199 39.3461 64.3829 38.6182 63.8504 37.886C65.6921 36.599 67.5738 35.3697 69.4289 34.1004C66.9703 31.8948 64.596 29.6048 62.1729 27.3681Z" fill="#0E3B65"/>
<path d="M0.326172 39.3817C2.00371 33.5192 3.18863 27.5102 5.09694 21.7188C5.63393 22.4599 6.04222 23.2898 6.29074 24.1685C7.12064 26.9022 8.13692 29.5739 8.88693 32.3298C10.2982 28.8505 11.0571 25.1182 12.6902 21.7321C13.4624 22.9569 13.6799 24.4037 14.0305 25.7795C15.171 30.3372 16.4314 34.8639 17.5453 39.4305C16.5867 39.6169 15.6281 39.8077 14.674 40.0074C13.9195 36.7234 13.1207 33.4526 12.4417 30.1508C11.2612 33.4615 10.5112 36.9408 9.03338 40.1361C8.56296 39.5104 8.20349 38.8136 7.99047 38.0636C7.18277 35.4364 6.33513 32.818 5.47861 30.2041C4.71972 33.4793 4.00521 36.7633 3.2197 40.0296C2.25667 39.8077 1.2892 39.5947 0.326172 39.3817Z" fill="#0E3B65"/>
<path d="M22.7056 22.3555C23.6331 22.3555 24.5607 22.3599 25.4882 22.3599C25.4793 28.0981 25.5015 33.8408 25.4793 39.5791C24.5518 39.5924 23.6243 39.6013 22.7012 39.619C22.7145 33.863 22.7012 28.1115 22.7056 22.3555Z" fill="#0E3B65"/>
<path d="M50.6164 26.1835C51.1978 24.6835 51.6727 23.1258 52.5336 21.75C54.9079 27.5149 56.763 33.4928 58.973 39.3242C58.0278 39.5772 57.0781 39.8124 56.1283 40.0564C55.7777 38.9558 55.4405 37.8508 55.1209 36.7413C53.2836 36.7369 51.4463 36.7413 49.6046 36.7369C49.2318 37.8641 48.8413 38.9825 48.4285 40.0964C47.501 39.8212 46.5735 39.5594 45.6504 39.2843C47.3279 34.9262 48.9478 30.546 50.6164 26.1835ZM52.3383 28.2782C51.8413 30.2575 51.1312 32.1703 50.4877 34.1052C51.7392 34.1052 52.9952 34.1052 54.2511 34.1052C53.6298 32.1569 53.0484 30.1954 52.3383 28.2782Z" fill="#0E3B65"/>
<path d="M1.9593 44.4492C3.18416 43.8146 4.7685 44.3117 5.44751 45.5055C4.13832 45.1416 2.40753 44.3294 1.35574 45.6652C-0.0022683 46.8457 0.761053 49.2156 2.43859 49.615C3.45044 50.0233 4.40459 49.2777 5.34099 48.9981C4.67974 50.9153 1.83503 50.6579 0.743301 49.2777C-0.641332 47.7866 0.0643007 45.1238 1.9593 44.4492Z" fill="#0E3B65"/>
<path d="M29.5992 46.1403C29.4971 45.0308 30.6022 44.0545 31.6894 44.3563C31.2013 44.9288 29.9853 45.2483 30.3669 46.2113C30.7752 47.2099 31.9735 48.1862 31.3566 49.3489C31.0459 50.2099 30.0607 50.2853 29.293 50.3697C29.7811 49.8637 30.3359 49.4333 30.8462 48.9495C30.9616 47.8534 29.9409 47.1078 29.5992 46.1403Z" fill="#0E3B65"/>
<path d="M42.4199 43.9141C43.1611 45.8623 42.846 48.068 42.7173 50.0961L42.2779 50.4999C42.2025 48.3076 42.0516 46.0886 42.4199 43.9141Z" fill="#0E3B65"/>
<path d="M56.5234 48.2668C56.6077 46.8289 56.0929 45.2179 56.9849 43.9531C57.1314 46.1233 57.0249 48.2979 57.087 50.4724C56.2305 49.0834 55.3962 47.6854 54.6018 46.2608C54.6417 47.6721 54.6595 49.0834 54.5707 50.4946L54.0426 50.1041C53.7674 48.1381 54.047 46.1321 53.9361 44.1484C54.8237 45.5064 55.6447 46.9043 56.5234 48.2668Z" fill="#0E3B65"/>
<path d="M70.0504 44.3134C72.0386 43.6876 74.3552 45.5693 73.9291 47.6773C73.8182 50.2469 70.1569 51.2854 68.5592 49.3682C66.966 47.7528 67.9291 44.8814 70.0504 44.3134ZM69.6465 45.2054C67.8847 46.1418 68.182 49.1019 70.1214 49.6034C71.7679 50.2646 73.6806 48.6093 73.259 46.8874C73.0815 45.2187 71.0134 44.3622 69.6465 45.2054Z" fill="#0E3B65"/>
<path d="M17.2843 44.1172C18.0787 46.2341 18.9307 48.3332 19.6763 50.4723C18.0387 49.6069 18.0831 47.2947 17.2931 45.7637C16.4233 47.2681 16.5121 49.5847 14.8789 50.4812C15.5979 48.3288 16.4632 46.2296 17.2843 44.1172Z" fill="#0E3B65"/>
</svg>
