<svg width="100" height="15" viewBox="0 0 100 15" fill="none" xmlns="http://www.w3.org/2000/svg">
<path d="M9.6381 0.956691C10.5366 0.522914 11.767 1.08966 12.0587 2.03726C11.6921 1.48213 11.1796 0.859866 10.4334 0.961855C9.72202 0.835337 9.08684 1.22522 8.67889 1.78035C8.03209 2.54075 7.39434 3.31406 6.68945 4.02282C7.04577 3.45478 7.5441 2.99389 7.97529 2.48395C8.48782 1.93785 8.88286 1.20198 9.6381 0.956691Z" fill="#98A290"/>
<path d="M17.2374 1.41943C18.0146 0.597061 19.5418 0.690012 20.1409 1.67634C20.492 2.0972 20.4765 2.66783 20.452 3.18423C20.2609 3.62059 19.973 4.00531 19.649 4.35259C19.0332 5.01229 18.4548 5.70555 17.8377 6.36526C17.4517 6.62991 17.1057 7.05336 16.6009 7.05207C15.9012 7.06111 15.2002 7.08693 14.4992 7.07918C13.7259 7.05723 12.9642 7.28703 12.1896 7.18763C12.4142 6.82744 12.737 6.54987 13.0132 6.23228C14.4153 4.6224 15.8379 3.03189 17.2374 1.41943Z" fill="#68D903"/>
<path d="M8.67778 1.77993C9.08574 1.2248 9.72091 0.834919 10.4323 0.961437C11.1785 0.859448 11.691 1.48171 12.0576 2.03684C12.2216 2.33635 12.2048 2.69654 12.2048 3.02833C11.9311 3.85845 11.252 4.43681 10.7008 5.07844C10.3186 5.52255 9.91198 5.94729 9.55179 6.40947C8.75911 6.36944 7.98193 6.59924 7.18925 6.55018C6.86134 6.52953 6.53601 6.56955 6.21713 6.64572C5.73946 6.75545 5.24888 6.62119 4.76734 6.68832C4.5001 6.78386 4.26255 6.94781 4.01855 7.08853C4.2987 6.60957 4.74797 6.261 5.07588 5.8156C5.62972 5.23207 6.11772 4.59044 6.68835 4.0224C7.39323 3.31364 8.03099 2.54033 8.67778 1.77993Z" fill="#68D903"/>
<path d="M18.8069 9.05161C19.2033 8.55458 19.7791 8.07691 20.4594 8.17244C21.2857 8.13629 22.0319 8.69271 22.3004 9.46086C22.6064 10.3362 22.0874 11.2812 21.376 11.7808C21.3941 11.6969 21.4302 11.529 21.4483 11.4451C20.1702 11.7679 18.8392 11.6388 17.5405 11.8092C17.25 11.8311 16.873 11.7847 16.793 11.449C17.3868 10.5879 18.1472 9.86236 18.8069 9.05161Z" fill="#68D903"/>
<path d="M10.7005 5.07745C11.2517 4.43583 11.9308 3.85746 12.2045 3.02734C12.2058 4.41388 12.2329 5.803 12.189 7.18695C11.2414 8.09969 10.4668 9.17122 9.55406 10.1162C9.24551 10.4609 8.93825 10.8069 8.6452 11.1658C8.34439 11.5221 8.35601 12.0205 8.28759 12.4581C8.23466 10.9683 8.33019 9.47461 8.23466 7.98737C8.09652 8.10098 7.9558 8.21201 7.8125 8.31787C7.84736 8.09324 8.00744 7.88409 8.2579 7.89442C8.72653 7.43353 9.15772 6.93521 9.55148 6.40848C9.91167 5.9463 10.3183 5.52156 10.7005 5.07745Z" fill="#397B00"/>
<path d="M19.6484 4.35195C19.9725 4.00467 20.2604 3.61995 20.4514 3.18359C20.4695 4.84511 20.445 6.50792 20.4592 8.17073C19.7788 8.0752 19.2031 8.55287 18.8067 9.04991C18.147 9.86066 17.3866 10.5862 16.7927 11.4473C16.6004 10.5384 16.7114 9.60375 16.6559 8.68326C16.6701 8.32049 16.5681 7.89317 16.8366 7.59753C17.1775 7.19215 17.5557 6.81647 17.8372 6.36462C18.4543 5.70492 19.0326 5.01165 19.6484 4.35195Z" fill="#397B00"/>
<path d="M39.1493 5.73946C39.8826 4.68987 41.2304 4.34518 42.4465 4.35551C43.478 4.32452 44.6257 4.46395 45.4029 5.21273C46.3699 6.33074 46.255 7.929 46.0213 9.28455C46.02 9.77771 45.9193 10.2593 45.7979 10.7343C45.6017 11.722 45.2028 12.7212 44.423 13.3912C43.4354 14.1762 42.0953 14.2213 40.8908 14.1607C40.084 14.0845 39.1958 13.9063 38.6342 13.2725C38.101 12.6489 37.9035 11.8149 37.9086 11.0106C37.9125 10.4619 37.8738 9.8939 38.0842 9.37492C38.1178 8.10845 38.425 6.7955 39.1493 5.73946ZM40.408 8.02841C40.2866 8.46347 40.2118 8.90887 40.0969 9.34523C40.1137 10.2334 39.8348 11.1875 40.2557 12.0215C40.8082 12.7031 41.8449 12.5559 42.5924 12.3429C43.6445 11.7413 43.6562 10.4038 43.9686 9.36976C44.028 8.41054 44.2216 7.40872 43.8898 6.47791C43.3618 5.87243 42.4659 5.9486 41.7519 6.07383C40.8805 6.29846 40.5797 7.24993 40.408 8.02841Z" fill="black"/>
<path d="M48.3895 4.56045C49.3112 4.40553 50.2795 4.45975 51.2219 4.44813C52.0649 4.45975 52.9351 4.37713 53.7471 4.65857C54.301 4.80703 54.7786 5.27696 54.8716 5.85404C54.98 6.28394 54.909 6.72675 54.8612 7.16053C54.7244 7.99194 54.1848 8.85432 53.2707 8.93307C53.1765 8.96019 52.988 9.0157 52.8938 9.04281L53.0009 9.19644C53.4424 9.29585 53.9343 9.42107 54.2467 9.77223C54.8303 10.5894 54.6276 11.6661 54.372 12.5634C54.1783 13.1985 53.6696 13.7317 53.019 13.8957C51.7177 14.2507 50.3608 14.0545 49.0324 14.0855C48.3675 14.0803 47.7039 14.0287 47.0391 14.0119C47.3115 12.1167 47.6097 10.2254 47.8873 8.33405C47.9776 7.37742 48.1209 6.42724 48.2758 5.47965C48.3172 5.17368 48.3288 4.86384 48.3895 4.56045ZM50.1568 6.00896C50.1039 6.81454 49.9477 7.60851 49.8225 8.40506C50.7352 8.34051 51.7525 8.6284 52.5762 8.11587C52.8925 7.61754 52.9557 7.01594 52.9519 6.43886C52.8189 6.1897 52.5904 5.98055 52.2883 6.00379C51.5782 5.99217 50.8656 5.9599 50.1568 6.00896ZM49.3009 12.5324C50.0135 12.5208 50.7275 12.5569 51.4388 12.5053C51.777 12.482 52.0636 12.291 52.2947 12.0547C52.5439 11.395 52.8098 10.583 52.3864 9.93877C52.1811 9.86776 51.9771 9.7761 51.7564 9.78901C51.0412 9.78126 50.326 9.7903 49.612 9.78514C49.5462 10.7056 49.3409 11.6106 49.3009 12.5324Z" fill="black"/>
<path d="M76.3858 4.52133C76.9965 4.51488 77.6032 4.42451 78.2165 4.45162C79.2493 4.47356 80.2885 4.38448 81.3162 4.53682C81.7099 4.69045 82.1837 4.73047 82.469 5.08292C82.939 5.55542 82.9364 6.27193 82.8847 6.89032C82.8021 7.38348 82.7117 7.9115 82.3761 8.30268C82.0301 8.79197 81.4156 8.9585 80.8553 9.03467C80.7959 9.21412 81.0915 9.21412 81.1884 9.24253C81.7125 9.32257 82.207 9.6479 82.4497 10.1243C82.5452 10.3631 82.5607 10.6226 82.633 10.8692C82.5852 11.8452 82.469 13.0174 81.5976 13.6268C80.8682 14.1044 79.9593 14.0528 79.1279 14.1238C77.7633 14.0954 76.3962 14.0838 75.0303 14.0154C75.3065 12.0711 75.6306 10.1333 75.8965 8.19036C75.9779 7.27245 76.1405 6.36488 76.2593 5.45214C76.3303 5.14618 76.3471 4.83246 76.3858 4.52133ZM78.1713 6.0034C78.1003 6.51076 78.0551 7.02329 77.9505 7.52549C77.9066 7.81984 77.8692 8.11548 77.8395 8.41241C78.6451 8.39175 79.461 8.48213 80.2575 8.32721C80.7158 8.04189 80.8579 7.52549 80.9379 7.02587C80.9444 6.83739 80.9508 6.6489 80.9598 6.46171C80.8307 6.27838 80.7158 6.02793 80.4564 6.02664C79.6985 5.96596 78.9317 5.98404 78.1713 6.0034ZM77.6304 9.78862C77.4987 10.7001 77.3889 11.6141 77.2715 12.5281C77.9686 12.5333 78.667 12.5488 79.3655 12.5165C79.7876 12.4971 80.2059 12.2661 80.3737 11.8645C80.5958 11.2578 80.6849 10.5632 80.4202 9.95387C80.2072 9.87382 79.9942 9.77571 79.7618 9.7912C79.0517 9.78345 78.3404 9.79249 77.6304 9.78862Z" fill="black"/>
<path d="M27.21 4.53691C27.9484 4.49173 28.6895 4.53562 29.4292 4.51626C29.7016 4.62083 29.9585 4.81835 29.996 5.12819C30.2477 6.91236 30.3704 8.7133 30.6053 10.4988C30.6208 10.7918 30.6143 11.0862 30.6208 11.3792C30.9513 11.4541 30.9397 11.0913 31.0378 10.9028C31.2728 10.2522 31.5064 9.60151 31.7517 8.95472C32.2023 7.64694 32.6774 6.3469 33.1783 5.05719C33.3022 4.69571 33.6921 4.52142 34.0536 4.52271C34.6591 4.51238 35.2645 4.51884 35.8713 4.51884C36.1424 4.52271 36.4716 4.57435 36.6265 4.82997C36.7918 5.09979 36.6885 5.42254 36.6833 5.7156C36.5697 6.69934 36.5181 7.69083 36.3632 8.66683C36.2095 10.4497 36.0327 12.2287 35.8881 14.0116C35.2387 14.0142 34.5906 14.0129 33.9413 14.0142C34.0265 12.8432 34.1723 11.6749 34.3195 10.5104C34.5119 9.27102 34.5235 8.01229 34.7197 6.77293C34.7326 6.55604 34.7378 6.33915 34.7404 6.12355C34.6616 6.13517 34.5054 6.15841 34.4267 6.17003C34.3299 6.5044 34.1969 6.82457 34.0833 7.15248C33.705 8.07684 33.3216 8.99991 33.0066 9.9475C32.8646 10.2883 32.7264 10.6317 32.6128 10.9829C32.3624 11.5109 32.3314 12.2003 31.8434 12.5773C31.2237 12.7516 30.5588 12.6328 29.9211 12.6586C29.5131 12.6973 29.18 12.3087 29.1981 11.9176C29.0548 10.269 28.8237 8.63068 28.6469 6.98594C28.5707 6.70838 28.5707 6.41919 28.5642 6.13259C28.448 6.13775 28.3331 6.14163 28.2183 6.14679C28.044 7.3358 27.8103 8.51578 27.5818 9.69576C27.3894 11.1404 27.139 12.5811 26.8743 14.0142C26.2288 14.0116 25.582 14.0154 24.9365 14.0129C25.2283 12.4082 25.5084 10.7944 25.8738 9.21034C25.9951 7.8522 26.3592 6.52764 26.5257 5.17596C26.6471 4.87386 26.8511 4.55886 27.21 4.53691Z" fill="black"/>
<path d="M57.1561 4.51821C57.8351 4.51433 58.5129 4.5195 59.192 4.51562C59.161 5.08625 59.0525 5.64912 58.9596 6.212C58.8795 6.8149 58.8189 7.42167 58.7091 8.01811C58.651 8.32279 58.6355 8.63392 58.5542 8.93343C58.3683 9.51826 58.4806 10.147 58.3192 10.7395C58.1901 11.8343 58.061 12.9317 57.8777 14.0187C57.187 14.0032 56.4964 14.0148 55.8057 14.0109C56.2937 10.8519 56.7404 7.68762 57.1561 4.51821Z" fill="black"/>
<path d="M61.0498 5.35348C61.0859 5.07463 61.1221 4.79706 61.1505 4.51692C61.8308 4.51692 62.5112 4.51821 63.1916 4.51562C63.0418 5.64009 62.905 6.76971 62.7074 7.88643C62.5331 9.04833 62.3601 10.2115 62.2349 11.3799C62.1949 11.6562 62.222 11.935 62.2801 12.2061C62.5073 12.2655 62.7345 12.3365 62.9747 12.3288C63.9997 12.3288 65.0261 12.3275 66.0511 12.3288C66.0498 12.8581 66.0511 13.3861 66.0369 13.9154C65.6574 13.9335 65.2765 13.9399 64.8983 13.9645C63.7867 14.0703 62.6622 14.0445 61.5468 14.0071C60.7232 13.8767 60.0622 13.1511 60.097 12.3017C60.1822 11.5722 60.2739 10.839 60.412 10.1173C60.4353 9.89652 60.434 9.6693 60.5205 9.46274C60.6754 9.09868 60.5166 8.68685 60.6638 8.3215C60.7619 7.32872 60.8987 6.33852 61.0498 5.35348Z" fill="black"/>
<path d="M68.145 6.38359C68.2069 5.4631 68.9299 4.70916 69.8194 4.52325C70.7644 4.48452 71.712 4.5168 72.6583 4.51163C73.3451 4.48581 74.0216 4.63815 74.7084 4.61621C74.6929 5.13132 74.5548 5.62964 74.4954 6.13959C73.1437 6.15766 71.7895 6.10215 70.4391 6.17186C70.3332 6.35131 70.1667 6.5114 70.1486 6.72958C70.0698 7.26922 69.9717 7.80627 69.9498 8.35108C71.1788 8.35237 72.4078 8.34849 73.6369 8.35366C73.6562 8.84295 73.4109 9.29351 73.4548 9.78538C72.2155 9.78538 70.9774 9.79958 69.7393 9.77763C69.5831 10.5651 69.4398 11.3823 69.4979 12.1905C69.6748 12.2925 69.8594 12.4022 70.0737 12.3777C71.2588 12.3816 72.444 12.3777 73.6291 12.379C73.5839 12.8941 73.6498 13.4234 73.522 13.9295C71.9831 14.0057 70.4416 14.087 68.9002 14.0121C68.4742 13.883 67.9991 13.75 67.7215 13.3744C67.3949 12.9161 67.258 12.3274 67.3755 11.7748C67.6802 9.98419 67.8829 8.18066 68.145 6.38359Z" fill="black"/>
<path d="M85.251 5.27529C85.677 4.7008 86.4309 4.47616 87.1203 4.50198C88.0653 4.5136 89.0104 4.4994 89.9541 4.52135C90.4227 4.58203 90.8926 4.61688 91.3652 4.6143C91.3574 5.12941 91.2283 5.63032 91.1663 6.13897C89.905 6.14285 88.6424 6.12219 87.3824 6.1493C87.0429 6.12348 86.8441 6.46172 86.8131 6.75736C86.7511 7.28926 86.6259 7.8134 86.6207 8.35046C87.8485 8.35175 89.0775 8.35046 90.3065 8.35175C90.3298 8.84104 90.0922 9.29547 90.1426 9.78605C88.8916 9.79638 87.6406 9.77185 86.3896 9.79896C86.3793 9.89966 86.3612 9.99907 86.3341 10.0959C86.2851 10.7052 86.1237 11.3056 86.1495 11.9188C86.1121 12.1215 86.2902 12.239 86.4051 12.3706C87.7039 12.3874 89.0026 12.3745 90.3014 12.3784C90.26 12.8857 90.251 13.3957 90.2523 13.9056C89.8908 13.9328 89.5306 13.9418 89.1704 13.965C87.9724 14.0735 86.7588 14.0464 85.5569 14.005C84.8895 13.885 84.2427 13.4538 84.0878 12.7592C83.9471 11.8723 84.1885 10.9893 84.3008 10.1114C84.5009 9.22447 84.497 8.30915 84.6816 7.41836C84.781 6.69023 84.7797 5.88335 85.251 5.27529Z" fill="black"/>
<path d="M92.0869 6.19648C92.176 5.63489 92.2109 5.06556 92.3374 4.51172C94.8923 4.52205 97.4459 4.51817 100.001 4.51301C99.9853 5.07847 99.8445 5.62973 99.8032 6.19389C98.8582 6.2068 97.9132 6.19777 96.9682 6.19777C96.8933 6.54634 96.8623 6.90136 96.7913 7.24993C96.7048 7.85541 96.648 8.46735 96.5021 9.06121C96.3046 10.715 96.1329 12.3817 95.8463 14.0225C95.1582 13.9993 94.4714 14.0161 93.7846 14.0109C94.1848 11.4108 94.5747 8.80946 94.922 6.20164C93.9769 6.19648 93.0319 6.20422 92.0869 6.19648Z" fill="black"/>
<path d="M7.18989 6.55167C7.98257 6.60073 8.75975 6.37093 9.55243 6.41096C9.15867 6.93768 8.72748 7.43601 8.25884 7.8969C8.00839 7.88657 7.8483 8.09571 7.81345 8.32035C7.78505 8.37586 7.72824 8.48559 7.69984 8.54111C6.36494 10.0464 5.04296 11.5646 3.71452 13.0777C3.27945 13.5863 2.77079 14.175 2.04009 14.1737C0.938862 14.3261 -0.124923 13.2752 0.0119229 12.174C0.0338699 11.2806 0.84591 10.7332 1.33649 10.0787C2.24923 9.10011 3.07418 8.03633 4.01919 7.09002C4.26319 6.9493 4.50074 6.78535 4.76797 6.68981C5.24952 6.62268 5.7401 6.75694 6.21777 6.64721C6.53665 6.57104 6.86198 6.53102 7.18989 6.55167Z" fill="#50AB01"/>
<path d="M16.6017 7.054C17.1065 7.05529 17.4525 6.63184 17.8385 6.36719C17.557 6.81904 17.1788 7.19472 16.838 7.60009C16.5694 7.89573 16.6714 8.32306 16.6572 8.68583C16.7127 9.60631 16.6017 10.541 16.7941 11.4499C16.8741 11.7855 17.2511 11.832 17.5416 11.8101C18.8403 11.6396 20.1713 11.7687 21.4494 11.446C21.4313 11.5299 21.3952 11.6977 21.3771 11.7816C21.3681 11.8217 21.35 11.9017 21.3397 11.9417C20.8117 12.4633 20.3546 13.0507 19.855 13.5994C19.2637 14.2513 18.1974 14.3791 17.4667 13.8873C16.9128 13.5064 16.5526 12.8506 16.5539 12.1741C16.5501 10.7927 16.5656 9.41008 16.5449 8.02742C16.3809 8.0868 16.266 8.21848 16.155 8.34758C14.6859 10.0181 13.2193 11.6939 11.7501 13.367C11.3848 13.855 10.8012 14.21 10.1764 14.179C9.22621 14.2294 8.34962 13.3928 8.28894 12.4607C8.35736 12.0231 8.34574 11.5247 8.64655 11.1684C8.9396 10.8095 9.24686 10.4635 9.55541 10.1188C10.4682 9.17383 11.2428 8.10229 12.1903 7.18956C12.9649 7.28896 13.7266 7.05916 14.4999 7.08111C15.201 7.08886 15.902 7.06304 16.6017 7.054Z" fill="#50AB01"/>
</svg>
