<svg width="88" height="51" viewBox="0 0 88 51" fill="none" xmlns="http://www.w3.org/2000/svg">
<path d="M71.0203 1.88477C71.8909 -0.0635207 74.2581 0.256487 75.5334 1.53652C76.2205 2.51537 76.5075 3.74834 77.4158 4.5766C77.2134 3.75305 76.9076 2.96244 76.6064 2.16713C78.0746 1.25887 79.6464 0.00706828 81.4818 0.736499C80.8935 1.37181 80.0794 1.833 79.6512 2.60008C79.877 3.52716 80.4041 4.47307 79.797 5.39544C81.623 4.10129 84.3289 2.71302 86.2913 4.55778C85.5431 5.25897 84.503 5.46133 83.6795 6.03076C83.1289 7.0802 83.4442 8.36964 83.3124 9.5132C79.9053 9.32025 76.4887 9.26378 73.0863 9.02378C73.1051 7.16961 73.3451 5.31544 73.2463 3.45657C72.9922 3.22127 72.4839 2.75538 72.2298 2.52008C71.7168 3.22127 71.1898 5.00485 70.0603 4.13423C69.4626 3.85658 69.8485 3.12244 69.9568 2.68008C70.5403 2.57184 71.1145 2.41654 71.6698 2.19536L71.0203 1.88477Z" fill="#614242"/>
<path d="M81.745 1.32122C82.5921 0.441196 83.9756 2.14477 82.8697 2.80832C81.8768 3.53304 80.7473 1.98947 81.745 1.32122Z" fill="#614242"/>
<path d="M86.4656 5.09971C87.6515 4.54911 88.4421 6.3468 87.2562 6.87858C86.1079 7.33036 85.4444 5.58443 86.4656 5.09971Z" fill="#614242"/>
<path d="M14.7128 45.8285C14.8258 43.6261 16.774 41.7061 18.9953 41.7202C20.5106 41.546 21.7954 42.4872 22.8683 43.4284C22.0118 44.5014 20.8494 44.252 19.7482 43.8049C17.6964 43.0002 15.6446 45.9697 17.2588 47.5697C18.3459 49.151 20.1577 48.125 21.6118 47.885C21.9318 48.0921 22.5718 48.5109 22.8919 48.7227C21.7154 49.791 20.2 50.7369 18.5341 50.4122C16.3411 50.1345 14.5387 48.0545 14.7128 45.8285Z" fill="#614242"/>
<path d="M28.0549 41.7656C28.6149 41.7656 29.1749 41.7703 29.7349 41.7703C31.029 44.6504 32.2997 47.5399 33.5797 50.4294C32.9162 50.3729 32.2385 50.3682 31.5844 50.2223C31.0761 49.8553 30.902 49.1917 30.5632 48.6929C29.4619 48.6552 28.3607 48.6505 27.2595 48.6835C26.836 50.0764 25.5983 50.5659 24.2383 50.4906C25.4618 47.5634 26.7513 44.6598 28.0549 41.7656ZM27.9843 46.8622C28.5866 46.8622 29.189 46.8669 29.7961 46.8716C29.4902 46.1187 29.189 45.3657 28.8878 44.6128C28.5819 45.361 28.2854 46.1093 27.9843 46.8622Z" fill="#614242"/>
<path d="M37.0854 41.8711C38.5113 41.3111 39.8714 42.1582 40.9114 43.0617C39.9373 44.3982 38.2855 43.2311 37.1654 44.1629C38.5019 45.01 40.5255 45.1936 41.1373 46.8689C41.8856 49.1372 39.1043 51.109 37.0666 50.3184C36.0125 50.0454 35.3866 49.0901 34.7324 48.2995C35.6736 47.7348 36.6901 47.8572 37.6172 48.3607C38.3466 48.8313 38.9443 48.0125 39.5467 47.716C38.4455 46.9489 37.1184 46.5912 36.0266 45.8195C34.7371 44.6477 35.3724 42.2429 37.0854 41.8711Z" fill="#614242"/>
<path d="M43.9703 41.7892C44.6292 41.7797 45.288 41.775 45.9516 41.7656C45.9657 44.6363 45.9563 47.5117 45.961 50.3823C45.2927 50.3682 44.6245 50.3588 43.9609 50.3447C43.9939 47.4928 43.9845 44.641 43.9703 41.7892Z" fill="#614242"/>
<path d="M49.373 41.7506C50.3048 41.8918 51.5472 41.4165 52.2202 42.2636C53.4108 43.746 54.3708 45.3931 55.4532 46.9555C55.4579 45.2284 55.4579 43.5013 55.4532 41.7741C56.1026 41.7741 56.7521 41.7741 57.4015 41.7741C57.3968 44.6495 57.3921 47.5249 57.4062 50.4003C56.7568 50.3908 56.1073 50.3861 55.4626 50.3814C54.0743 48.4143 52.719 46.4284 51.3213 44.4707C51.2978 46.4519 51.3072 48.4378 51.3119 50.4238C50.6625 50.4191 50.0178 50.4144 49.373 50.4097C49.373 47.5249 49.373 44.6354 49.373 41.7506Z" fill="#614242"/>
<path d="M63.4259 41.8637C66.5695 40.8001 69.9296 44.099 68.8896 47.2568C68.1743 50.3486 63.9341 51.5298 61.6706 49.3368C59.1246 47.2285 60.2023 42.6213 63.4259 41.8637ZM63.8918 43.7272C62.16 44.1178 61.4023 46.5367 62.7529 47.7697C64.0894 49.318 66.9836 48.358 67.1154 46.3108C67.3319 44.6073 65.473 43.2472 63.8918 43.7272Z" fill="#614242"/>
<path d="M10.3274 44.3281C10.8686 45.1093 11.5509 45.7682 12.3133 46.3282C11.5368 46.907 10.8592 47.5988 10.318 48.4082C9.82384 47.5706 9.14617 46.8741 8.33203 46.347C9.12735 45.8152 9.82384 45.1517 10.3274 44.3281Z" fill="#614242"/>
<path d="M71.2373 46.3318C71.9714 45.7671 72.635 45.1224 73.2185 44.4023C73.7785 45.1365 74.4421 45.7812 75.1903 46.3224C74.4374 46.873 73.7927 47.5507 73.2609 48.3177C72.6585 47.5789 71.9809 46.9153 71.2373 46.3318Z" fill="#614242"/>
<path d="M50.6967 4.11148C54.1697 3.38205 57.9204 3.575 61.1769 5.05739C66.1512 7.29274 69.8689 12.0411 71.0313 17.3495C71.6949 20.7472 71.5866 24.3567 70.3819 27.6274C68.6924 32.3287 64.9182 36.2535 60.264 38.0747C55.0921 39.9477 48.9931 39.1524 44.6165 35.7641C37.934 30.9263 35.6233 21.1802 39.1764 13.7823C41.1905 8.95867 45.5954 5.25034 50.6967 4.11148ZM53.5626 13.1611C51.1155 13.6176 49.3743 15.7165 48.4425 17.9048C46.9272 21.4861 48.0284 25.9756 51.0449 28.4321C53.3979 30.3098 57.158 29.8769 59.0216 27.5097C61.944 24.225 62.0664 18.8931 59.2757 15.4906C57.9957 13.7306 55.7227 12.7188 53.5626 13.1611Z" fill="#FF722D"/>
<path d="M0.23363 6.32241C3.99373 6.29417 7.75383 6.11534 11.5139 5.99299C13.834 10.6237 16.0176 15.325 18.3141 19.9651C20.6436 15.3297 22.8648 10.6425 25.1519 5.98828C28.9309 6.11534 32.7051 6.26594 36.484 6.35065C36.4181 16.605 36.8322 26.8735 35.9805 37.1091C32.7474 37.3068 29.5191 37.4668 26.2861 37.6174C26.7473 32.5302 26.9026 27.4194 26.9543 22.3181C24.0743 27.5324 21.2271 32.7702 18.3753 38.0032C15.4858 32.7137 12.6434 27.4006 9.68329 22.1534C9.91388 27.2971 10.1821 32.4407 10.4363 37.5797C7.21734 37.4432 4.00785 37.2032 0.788939 37.095C-0.128732 26.8641 0.219512 16.5815 0.23363 6.32241Z" fill="#FF722D"/>
<path d="M72.9039 38.2149C72.3392 29.0805 72.4192 19.9179 73.0686 10.793C76.4805 10.9059 79.8971 11 83.3089 11.16C82.4007 20.0356 82.5983 28.9723 82.8289 37.8807C79.5206 37.9702 76.2123 38.1207 72.9039 38.2149Z" fill="#FF722D"/>
</svg>
