<svg width="100" height="39" viewBox="0 0 100 39" fill="none" xmlns="http://www.w3.org/2000/svg">
<path d="M47.074 1.13663C49.4247 -0.542453 52.5013 0.0995481 55.0002 1.06255C56.9262 1.84283 58.2547 3.73427 58.6102 5.74916C58.8423 7.17638 58.3929 8.59372 58.2448 10.0061C55.741 10.3814 53.1483 10.6333 50.6692 9.93204C48.2542 9.40857 46.1801 8.0258 43.9677 6.99366C44.4072 4.81579 45.0146 2.36631 47.074 1.13663Z" fill="#334E66"/>
<path d="M40.1014 8.34549C40.6743 7.72818 41.1681 6.87383 42.1065 6.80469C43.9436 7.97511 45.3362 9.77765 47.361 10.6567C50.2648 11.9703 53.6279 12.6074 56.754 11.7876C57.5886 11.6345 57.796 10.716 58.1911 10.1036C59.1639 10.6468 60.3986 11.0419 60.8331 12.1777C60.6702 12.7111 60.4381 13.2099 60.1368 13.684C59.6331 13.921 59.1244 14.1581 58.6108 14.3754C58.3738 14.4396 57.9046 14.563 57.6725 14.6272C56.3737 14.9482 55.0453 15.1359 53.7119 15.21C52.7341 15.0618 51.7661 14.9235 50.7932 14.7606C47.519 14.2371 44.2201 13.0222 41.8052 10.6715C41.6472 10.474 41.3361 10.074 41.178 9.87641C40.8126 9.36775 40.457 8.85909 40.1014 8.34549Z" fill="#334E66"/>
<path d="M41.8643 6.63281C42.5655 6.7464 43.2865 6.78097 43.968 6.99332C46.1805 8.02546 48.2546 9.40823 50.6696 9.93171C53.1487 10.633 55.7414 10.3811 58.2452 10.0058L58.1908 10.1046C57.7958 10.7169 57.5884 11.6355 56.7538 11.7886C53.6277 12.6084 50.2646 11.9713 47.3608 10.6577C45.336 9.77862 43.9434 7.97608 42.1062 6.80566L41.8643 6.63281Z" fill="#405F7F"/>
<path d="M31.3355 25.5138C30.0515 18.6493 33.8788 11.4095 40.1013 8.34766C40.4568 8.86126 40.8124 9.36992 41.1779 9.87858C38.2642 11.5231 35.5974 13.8343 34.2739 16.9801C32.1553 21.5235 32.7627 27.1682 35.7357 31.193C38.3975 34.7635 42.773 37.1143 47.2719 36.9562C53.4253 37.0994 59.2428 32.556 60.8083 26.6398C61.9985 22.4865 61.1095 17.8838 58.6107 14.3775C59.1243 14.1602 59.6329 13.9232 60.1366 13.6861C61.2873 14.5899 61.7614 16.1455 62.3244 17.4641C64.2158 22.7433 63.1096 29.0003 59.4058 33.2326C56.2303 37.0254 51.2276 39.1637 46.299 38.8773C39 38.5662 32.4219 32.7536 31.3355 25.5138Z" fill="#46698C"/>
<path d="M34.2744 16.9765C35.5979 13.8307 38.2646 11.5195 41.1783 9.875C41.3364 10.0725 41.6475 10.4726 41.8055 10.6701C38.877 12.2158 36.2399 14.532 35.0201 17.6827C33.8398 20.4186 33.741 23.52 34.4176 26.3991C35.7263 31.1746 39.8548 34.6365 44.5464 35.881C43.4747 33.1895 42.3093 30.5425 41.2672 27.8461C42.0426 27.9844 42.8179 28.1128 43.5982 28.2362C43.5982 29.3425 43.5587 30.4487 43.4698 31.5549C44.9069 30.8685 46.3736 30.1968 47.9786 30.0437C48.9021 30.6117 49.8404 31.1549 50.7936 31.6784C50.7985 30.5672 50.7886 29.456 50.7985 28.3498C51.5491 28.1869 52.2998 28.0288 53.0554 27.8708C52.0035 30.5573 50.8429 33.1994 49.7861 35.881C54.4727 34.6365 58.5272 31.1598 59.91 26.4337C60.9915 22.3743 60.0482 18.0432 57.6728 14.6258C57.9049 14.5616 58.3741 14.4381 58.6112 14.3739C61.11 17.8803 61.9989 22.4829 60.8088 26.6362C59.2433 32.5525 53.4258 37.0959 47.2724 36.9527C42.7735 37.1107 38.398 34.76 35.7362 31.1894C32.7632 27.1646 32.1558 21.5199 34.2744 16.9765ZM46.8082 31.6142C46.5415 32.4093 46.8082 32.6907 47.6181 32.4488C47.8897 31.6487 47.6181 31.3722 46.8082 31.6142ZM46.8378 33.6834C46.1711 34.1278 46.9119 35.2736 47.5737 34.7698C48.2354 34.3204 47.4996 33.1797 46.8378 33.6834Z" fill="#E6ECF3"/>
<path d="M1.1817 16.7745C3.24104 16.7893 5.30532 16.7942 7.3696 16.7745C7.66591 18.2412 7.92765 19.7079 8.28816 21.1598C8.55977 19.7079 8.79188 18.2412 9.02893 16.7843C11.1525 16.7893 13.281 16.7942 15.4045 16.7695C15.3847 20.7993 15.4094 24.8291 15.3897 28.8589C14.0168 28.849 12.6439 28.8441 11.2759 28.8441C11.2759 26.7304 11.3056 24.6168 11.1179 22.513C10.7179 24.6118 10.4512 26.7354 10.1055 28.8441C8.88571 28.849 7.66591 28.849 6.45105 28.854C6.12017 26.7008 5.88806 24.5279 5.39915 22.3994C5.17692 24.5427 5.26581 26.7008 5.30532 28.849C3.92749 28.8441 2.54965 28.849 1.17676 28.8638C1.1817 24.8341 1.17676 20.8043 1.1817 16.7745Z" fill="#E6ECF3"/>
<path d="M16.7816 16.7935C19.6015 16.9713 22.6386 16.2453 25.2955 17.4651C27.6857 19.1195 27.2363 22.8283 25.6165 24.8975C26.0116 26.221 26.4017 27.5396 26.8018 28.8582C25.3647 28.8483 23.9325 28.8434 22.5004 28.8335C22.1596 27.589 22.209 26.0679 21.0336 25.258C20.9497 26.4482 20.9398 27.6482 20.9349 28.8434C19.5471 28.8483 18.1594 28.8483 16.7767 28.8483C16.7767 24.8284 16.7668 20.8134 16.7816 16.7935ZM20.9151 19.9344C20.925 20.7591 20.9299 21.5887 20.9398 22.4135C21.4978 22.3246 22.0608 22.2702 22.6041 22.1122C23.3794 21.6332 22.846 20.7048 22.8362 19.9985C22.1942 19.9739 21.5571 19.9541 20.9151 19.9344Z" fill="#E6ECF3"/>
<path d="M68.0576 16.7789C70.7935 16.9518 73.6677 16.3394 76.2999 17.2678C78.5519 18.1666 78.2605 21.2285 76.9271 22.8137C77.2975 23.0607 77.6728 23.3076 78.0481 23.5595C78.3988 25.2138 78.4531 27.4164 76.6506 28.2559C73.9295 29.3424 70.9071 28.6658 68.0576 28.8584C68.0626 24.8336 68.0576 20.8087 68.0576 16.7789ZM72.2158 19.0407C72.1911 19.8457 72.1763 20.6556 72.1615 21.4606C72.9467 21.2779 74.611 21.4655 74.2505 20.1815C74.3542 19.0407 72.9368 19.3321 72.2158 19.0407ZM72.1812 24.1866C72.1714 24.962 72.1664 25.7373 72.1664 26.5127C72.8825 26.4139 73.6035 26.3151 74.3245 26.2015C74.2307 25.6287 74.1665 25.0459 74.0035 24.4829C73.406 24.3348 72.7887 24.2755 72.1812 24.1866Z" fill="#E6ECF3"/>
<path d="M79.3085 16.7794C82.3802 16.7794 85.447 16.7893 88.5187 16.7695C88.5187 17.935 88.5237 19.1005 88.5286 20.266C86.6816 20.2561 84.8346 20.1968 82.9975 20.3894C84.0297 21.7129 85.9063 20.8882 87.3236 21.1253C87.3236 22.2512 87.3236 23.3772 87.3236 24.5032C86.0199 24.518 84.7112 24.5229 83.4025 24.5229L83.3926 25.4514C85.1013 25.4563 86.81 25.4563 88.5237 25.4316C88.5187 26.5724 88.5237 27.7132 88.5286 28.8589C85.4569 28.849 82.3802 28.854 79.3085 28.854C79.3282 24.8291 79.3282 20.8043 79.3085 16.7794Z" fill="#E6ECF3"/>
<path d="M89.8816 16.7825C92.8595 16.7726 95.8374 16.7973 98.8203 16.7578C98.8301 17.9233 98.8301 19.0888 98.8351 20.2592C98.0301 20.2543 97.2301 20.2543 96.4301 20.2543C96.4547 23.1186 96.4399 25.9878 96.4449 28.8521C95.0621 28.8521 93.6793 28.8521 92.3015 28.8423C92.2817 25.973 92.2867 23.0988 92.2965 20.2296C91.4916 20.2444 90.6866 20.2592 89.8816 20.274C89.8767 19.1085 89.8767 17.943 89.8816 16.7825Z" fill="#E6ECF3"/>
<path d="M35.0188 17.6845C36.2386 14.5338 38.8757 12.2176 41.8042 10.6719C44.2191 13.0226 47.518 14.2375 50.7922 14.7609C50.1009 15.5955 49.3107 16.3808 48.8564 17.3783C48.2588 19.4327 50.0762 21.8081 52.2491 21.6501C53.7504 21.6847 54.7331 20.3562 55.7949 19.5019C55.7406 22.0649 55.7702 24.628 55.8542 27.1861C55.5282 27.275 54.8862 27.4429 54.5652 27.5318C54.0615 27.6454 53.5578 27.759 53.0541 27.8726C52.2985 28.0306 51.5478 28.1886 50.7972 28.3516C50.7972 27.8874 50.8021 26.959 50.8071 26.4947C49.8589 26.9837 48.9206 27.5022 48.0119 28.0553C46.4513 27.8825 44.9945 27.2948 43.6265 26.5589C43.6117 27.117 43.6018 27.675 43.5969 28.238C42.8166 28.1146 42.0413 27.9862 41.2659 27.8479C38.9745 27.4084 36.6978 26.8898 34.4163 26.4009C33.7397 23.5218 33.8385 20.4204 35.0188 17.6845ZM40.2042 19.0426C41.0733 18.687 41.903 18.2129 42.8314 18.0401C43.7994 18.1635 44.6241 18.7364 45.4982 19.1167C44.8117 18.2771 44.071 17.2252 42.8364 17.3042C41.6462 17.2302 40.8807 18.2277 40.2042 19.0426ZM41.7598 24.2329C41.0733 24.3119 40.3869 24.3514 39.6955 24.3613C40.3177 25.0774 40.7079 26.3268 41.8783 26.149C43.8981 26.3318 45.6019 25.0675 47.1723 23.9761C49.202 25.6552 53.0541 27.6059 54.6986 24.4552C53.9776 24.3811 53.2467 24.391 52.5454 24.2033C51.3799 23.4428 50.6342 22.1983 49.4984 21.4032C48.7428 20.9933 47.8637 21.4328 47.0785 21.5118C46.6044 21.3242 46.1303 21.1365 45.6562 20.9488C44.1302 21.7637 43.0833 23.1662 41.7598 24.2329Z" fill="#F2CA91"/>
<path d="M53.7109 15.2077C55.0443 15.1337 56.3728 14.946 57.6716 14.625C60.047 18.0424 60.9903 22.3735 59.9087 26.4329C58.6544 26.6996 57.395 26.9662 56.1357 27.2181C56.037 24.1711 55.9579 21.1092 56.3728 18.0819C55.5184 17.0942 54.6739 16.0868 53.7109 15.2077Z" fill="#F2CA91"/>
<path d="M50.7932 14.7617C51.7661 14.9247 52.734 15.063 53.7118 15.2111C54.6748 16.0902 55.5193 17.0976 56.3737 18.0853C55.9589 21.1126 56.0379 24.1744 56.1366 27.2215C55.6132 27.3203 55.0897 27.424 54.5662 27.5326C54.8872 27.4437 55.5292 27.2758 55.8551 27.1869C55.7712 24.6288 55.7416 22.0657 55.7959 19.5027C54.7341 20.357 53.7514 21.6855 52.2501 21.6509C50.0771 21.8089 48.2598 19.4335 48.8573 17.3791C49.3117 16.3815 50.1018 15.5963 50.7932 14.7617ZM50.9117 16.2531C49.4796 17.063 49.4055 19.1718 50.6846 20.1545C52.1957 21.399 54.8625 20.0805 54.581 18.0952C54.418 16.4062 52.3785 15.2309 50.9117 16.2531Z" fill="#A98E67"/>
<path d="M0.158654 15.6362C7.6355 15.6608 15.1123 15.6065 22.5843 15.651C24.4559 15.7004 26.7671 16.2041 27.5326 18.1548C28.387 20.387 28.3919 23.1229 27.0338 25.1625C27.3993 26.7527 27.8536 28.3231 28.1302 29.933C18.8113 30.1108 9.48743 29.9429 0.163592 30.012C-0.058639 25.2267 -0.0487621 20.4166 0.158654 15.6362ZM1.18092 16.7769C1.17598 20.8067 1.18092 24.8365 1.17598 28.8663C2.54887 28.8515 3.92671 28.8466 5.30454 28.8515C5.26503 26.7033 5.17614 24.5452 5.39837 22.4019C5.88728 24.5303 6.11939 26.7033 6.45027 28.8564C7.66513 28.8515 8.88493 28.8515 10.1047 28.8466C10.4504 26.7378 10.7171 24.6143 11.1171 22.5154C11.3048 24.6192 11.2752 26.7329 11.2752 28.8466C12.6431 28.8466 14.016 28.8515 15.3889 28.8614C15.4087 24.8316 15.384 20.8018 15.4037 16.772C13.2802 16.7967 11.1517 16.7918 9.02815 16.7868C8.7911 18.2437 8.559 19.7104 8.28738 21.1623C7.92687 19.7104 7.66513 18.2437 7.36882 16.7769C5.30454 16.7967 3.24026 16.7918 1.18092 16.7769ZM16.7816 16.7967C16.7667 20.8166 16.7766 24.8316 16.7766 28.8515C18.1594 28.8515 19.5471 28.8515 20.9348 28.8466C20.9397 27.6515 20.9496 26.4514 21.0336 25.2612C22.2089 26.0711 22.1595 27.5922 22.5003 28.8367C23.9325 28.8466 25.3646 28.8515 26.8017 28.8614C26.4017 27.5428 26.0116 26.2242 25.6165 24.9007C27.2363 22.8315 27.6857 19.1227 25.2955 17.4683C22.6386 16.2485 19.6014 16.9745 16.7816 16.7967Z" fill="#233C53"/>
<path d="M72.2155 19.043C72.9365 19.3343 74.3538 19.043 74.2501 20.1838C74.6106 21.4678 72.9463 21.2801 72.1611 21.4628C72.1759 20.6579 72.1908 19.8479 72.2155 19.043Z" fill="#233C53"/>
<path d="M72.1808 24.1875C72.7883 24.2764 73.4056 24.3357 74.0031 24.4838C74.1661 25.0468 74.2303 25.6295 74.3241 26.2024C73.6031 26.316 72.8821 26.4148 72.166 26.5135C72.166 25.7382 72.171 24.9628 72.1808 24.1875Z" fill="#233C53"/>
<path d="M66.9122 15.8644C69.0802 15.4891 71.2926 15.6471 73.4804 15.6422C75.1348 15.6372 76.7891 15.9977 78.1966 16.9015C78.2312 16.5904 78.3053 15.9632 78.3398 15.652C85.5006 15.6224 92.6663 15.6471 99.8271 15.6372C99.9111 17.4694 100.232 19.3954 99.6987 21.1782C98.9876 21.3165 98.2616 21.3362 97.5455 21.3955C97.506 24.2647 97.6739 27.1439 97.4171 30.0082C95.5208 29.9736 93.6244 30.0921 91.7379 29.9588C91.6046 29.8452 91.3478 29.618 91.2194 29.5045C91.0613 26.7784 91.2045 24.0425 91.1601 21.3115C90.2465 21.3115 89.3329 21.3115 88.4192 21.3115C88.4192 22.2745 88.4192 23.2425 88.4143 24.2055C88.7156 24.2993 89.318 24.4919 89.6193 24.5857C89.6539 26.3932 89.723 28.2155 89.481 30.0131C85.8562 29.9045 82.2017 30.1909 78.5917 29.8847C78.4287 29.6822 78.0978 29.2773 77.9349 29.0748C74.4878 30.6206 70.6111 29.86 66.9616 29.9539C66.8529 25.2574 66.9369 20.5609 66.9122 15.8644ZM68.0579 16.783C68.0579 20.8127 68.0629 24.8376 68.0579 28.8625C70.9074 28.6699 73.9298 29.3464 76.6509 28.26C78.4534 27.4204 78.3991 25.2179 78.0485 23.5635C77.6731 23.3116 77.2978 23.0647 76.9274 22.8178C78.2608 21.2325 78.5522 18.1707 76.3002 17.2719C73.668 16.3434 70.7938 16.9558 68.0579 16.783ZM79.3078 16.783C79.3275 20.8078 79.3275 24.8327 79.3078 28.8575C82.3795 28.8575 85.4562 28.8526 88.5279 28.8625C88.523 27.7167 88.518 26.5759 88.523 25.4352C86.8093 25.4598 85.1006 25.4599 83.3919 25.4549L83.4018 24.5265C84.7105 24.5265 86.0191 24.5215 87.3229 24.5067C87.3229 23.3808 87.3229 22.2548 87.3229 21.1288C85.9056 20.8918 84.0289 21.7165 82.9968 20.393C84.8339 20.2004 86.6809 20.2596 88.5279 20.2695C88.523 19.104 88.518 17.9386 88.518 16.7731C85.4463 16.7928 82.3795 16.783 79.3078 16.783ZM89.881 16.7879C89.8761 17.9484 89.8761 19.1139 89.881 20.2794C90.686 20.2646 91.491 20.2498 92.2959 20.2349C92.2861 23.1042 92.2811 25.9784 92.3009 28.8476C93.6787 28.8575 95.0615 28.8575 96.4443 28.8575C96.4393 25.9932 96.4541 23.124 96.4295 20.2596C97.2295 20.2596 98.0295 20.2596 98.8345 20.2646C98.8295 19.0942 98.8295 17.9287 98.8197 16.7632C95.8368 16.8027 92.8589 16.778 89.881 16.7879Z" fill="#1A354E"/>
<path d="M40.2051 19.0433C40.8816 18.2285 41.6471 17.2309 42.8373 17.305C44.0719 17.226 44.8127 18.2779 45.4991 19.1174C44.625 18.7371 43.8003 18.1643 42.8323 18.0408C41.9039 18.2137 41.0742 18.6878 40.2051 19.0433Z" fill="#1A354E"/>
<path d="M52.8529 19.3605C51.3664 19.4889 51.075 17.7555 52.2208 17.0938C52.8825 17.6716 52.8282 18.5654 52.8529 19.3605Z" fill="#1A354E"/>
<path d="M50.9108 16.2563C52.3775 15.234 54.4171 16.4094 54.5801 18.0984C54.8616 20.0836 52.1948 21.4022 50.6836 20.1577C49.4045 19.1749 49.4786 17.0662 50.9108 16.2563ZM52.8516 19.3626C52.8269 18.5675 52.8812 17.6736 52.2195 17.0958C51.0737 17.7576 51.3651 19.491 52.8516 19.3626Z" fill="#F9F9FA"/>
<path d="M20.915 19.9375C21.557 19.9573 22.1941 19.977 22.8361 20.0017C22.846 20.7079 23.3793 21.6363 22.604 22.1154C22.0608 22.2734 21.4978 22.3277 20.9397 22.4166C20.9299 21.5919 20.9249 20.7622 20.915 19.9375Z" fill="#2D4359"/>
<path d="M41.7606 24.2333C43.0841 23.1666 44.131 21.7641 45.657 20.9492C46.1311 21.1369 46.6052 21.3245 47.0793 21.5122C47.8645 21.4332 48.7436 20.9937 49.4992 21.4036C50.635 22.1987 51.3807 23.4431 52.5462 24.2037C53.2475 24.3913 53.9783 24.3815 54.6994 24.4555C53.0549 27.6063 49.2028 25.6556 47.1731 23.9765C45.6027 25.0679 43.8989 26.3322 41.8791 26.1494C40.7087 26.3272 40.3185 25.0778 39.6963 24.3617C40.3877 24.3518 41.0741 24.3123 41.7606 24.2333Z" fill="#C1512B"/>
<path d="M34.416 26.4023C36.6976 26.8913 38.9742 27.4098 41.2657 27.8493C42.3077 30.5457 43.4732 33.1927 44.5448 35.8842C39.8533 34.6397 35.7247 31.1778 34.416 26.4023Z" fill="#4D6E8C"/>
<path d="M43.6258 26.5603C44.9938 27.2961 46.4506 27.8838 48.0112 28.0567C48.9198 27.5035 49.8582 26.985 50.8063 26.4961C50.8014 26.9603 50.7965 27.8887 50.7965 28.353C50.7866 29.4592 50.7965 30.5703 50.7915 31.6815C49.8384 31.158 48.9001 30.6148 47.9766 30.0469C46.3716 30.1999 44.9049 30.8716 43.4678 31.558C43.5567 30.4518 43.5962 29.3456 43.5962 28.2394C43.6011 27.6764 43.611 27.1183 43.6258 26.5603Z" fill="#4D6E8C"/>
<path d="M56.1352 27.2227C57.3945 26.9709 58.6538 26.7042 59.9082 26.4375C58.5254 31.1636 54.4709 34.6403 49.7843 35.8848C50.8411 33.2032 52.0017 30.5611 53.0536 27.8746C53.5573 27.761 54.061 27.6474 54.5647 27.5338C55.0882 27.4252 55.6117 27.3215 56.1352 27.2227Z" fill="#4D6E8C"/>
<path d="M46.8079 31.6159C47.6178 31.3739 47.8894 31.6505 47.6178 32.4505C46.8079 32.6925 46.5412 32.411 46.8079 31.6159Z" fill="#BEC2C8"/>
<path d="M46.8378 33.6845C47.4996 33.1808 48.2354 34.3215 47.5736 34.7709C46.9119 35.2747 46.1711 34.1289 46.8378 33.6845Z" fill="#C1C8CF"/>
</svg>
