<svg width="24" height="25" viewBox="0 0 24 25" fill="none" xmlns="http://www.w3.org/2000/svg">
<path d="M17.46 14.5815C17.2352 14.8064 17.1227 15.1437 17.1789 15.4811L17.966 19.9787C18.0784 20.7658 17.2351 21.3843 16.5043 21.0469L12.4564 18.9106C12.1753 18.7419 11.838 18.7419 11.5569 18.9106L7.50899 20.9907C6.77812 21.3843 5.93483 20.7658 6.04725 19.9225L6.83434 15.4249C6.89055 15.0876 6.77812 14.7502 6.55324 14.5253L3.29249 11.377C2.73029 10.8148 3.01139 9.80278 3.85468 9.69032L8.35233 9.01566C8.68964 8.95945 8.97073 8.79077 9.0832 8.45346L11.1071 4.40558C11.4444 3.6747 12.5127 3.6747 12.9062 4.40558L14.9301 8.45346C15.0988 8.73456 15.3799 8.95945 15.661 9.01566L20.1586 9.69032C20.9457 9.80274 21.283 10.8147 20.7208 11.377L17.46 14.5815Z" fill="#FFDA4F"/>
</svg>
