<svg width="18" height="19" viewBox="0 0 18 19" fill="none" xmlns="http://www.w3.org/2000/svg">
<path d="M14.46 11.5815C14.2352 11.8064 14.1227 12.1437 14.1789 12.4811L14.966 16.9787C15.0784 17.7658 14.2351 18.3843 13.5043 18.0469L9.45641 15.9106C9.17531 15.7419 8.838 15.7419 8.55686 15.9106L4.50899 17.9907C3.77812 18.3843 2.93483 17.7658 3.04725 16.9225L3.83434 12.4249C3.89055 12.0876 3.77812 11.7502 3.55324 11.5253L0.292487 8.37695C-0.269708 7.81475 0.0113896 6.80278 0.854683 6.69032L5.35233 6.01566C5.68964 5.95945 5.97073 5.79077 6.0832 5.45346L8.10713 1.40558C8.44444 0.674704 9.51266 0.674704 9.90618 1.40558L11.9301 5.45346C12.0988 5.73456 12.3799 5.95945 12.661 6.01566L17.1586 6.69032C17.9457 6.80274 18.283 7.81471 17.7208 8.37695L14.46 11.5815Z" fill="#FFDA4F"/>
</svg>
