<svg width="18" height="17" viewBox="0 0 18 17" fill="none" xmlns="http://www.w3.org/2000/svg">
<path d="M17.3334 8.49935C17.3334 9.21046 16.4597 9.79657 16.2847 10.4521C16.1042 11.1299 16.5611 12.0743 16.2181 12.6674C15.8695 13.2702 14.8209 13.3424 14.332 13.8313C13.8431 14.3202 13.7709 15.3688 13.1681 15.7174C12.575 16.0605 11.6306 15.6035 10.9528 15.7841C10.2972 15.9591 9.71113 16.8327 9.00002 16.8327C8.28891 16.8327 7.7028 15.9591 7.04724 15.7841C6.36946 15.6035 5.42502 16.0605 4.83197 15.7174C4.22919 15.3688 4.15697 14.3202 3.66808 13.8313C3.17919 13.3424 2.13058 13.2702 1.78196 12.6674C1.43891 12.0743 1.89585 11.1299 1.7153 10.4521C1.5403 9.79657 0.666687 9.21046 0.666687 8.49935C0.666687 7.78824 1.5403 7.20213 1.7153 6.54657C1.89585 5.86879 1.43891 4.92435 1.78196 4.33129C2.13058 3.72852 3.17919 3.65629 3.66808 3.1674C4.15697 2.67852 4.22919 1.6299 4.83197 1.28129C5.42502 0.938238 6.36946 1.39518 7.04724 1.21463C7.7028 1.03963 8.28891 0.166016 9.00002 0.166016C9.71113 0.166016 10.2972 1.03963 10.9528 1.21463C11.6306 1.39518 12.575 0.938238 13.1681 1.28129C13.7709 1.6299 13.8431 2.67852 14.332 3.1674C14.8209 3.65629 15.8695 3.72852 16.2181 4.33129C16.5611 4.92435 16.1042 5.86879 16.2847 6.54657C16.4597 7.20213 17.3334 7.78824 17.3334 8.49935Z" fill="#279955"/>
<path d="M11.4083 6.01574L8.23608 9.18796L6.59163 7.5449C6.42013 7.3735 6.18758 7.27721 5.94511 7.27721C5.70263 7.27721 5.47008 7.3735 5.29858 7.5449C5.12717 7.71641 5.03088 7.94896 5.03088 8.19143C5.03088 8.43391 5.12717 8.66646 5.29858 8.83796L7.60552 11.1449C7.77245 11.3116 7.99875 11.4053 8.23469 11.4053C8.47063 11.4053 8.69693 11.3116 8.86386 11.1449L12.7 7.30879C12.8714 7.13729 12.9677 6.90474 12.9677 6.66227C12.9677 6.41979 12.8714 6.18724 12.7 6.01574C12.6152 5.93087 12.5145 5.86355 12.4037 5.81762C12.2929 5.77169 12.1741 5.74805 12.0541 5.74805C11.9342 5.74805 11.8154 5.77169 11.7046 5.81762C11.5938 5.86355 11.4931 5.93087 11.4083 6.01574Z" fill="#FFFCEE"/>
</svg>
